<mxfile host="app.diagrams.net" agent="Mozilla/5.0 (X11; Ubuntu; Linux x86_64; rv:138.0) Gecko/20100101 Firefox/138.0" version="27.1.1">
  <diagram name="Page-1" id="Z_kPslWlAklwwfjtAWnJ">
    <mxGraphModel dx="1501" dy="791" grid="1" gridSize="10" guides="1" tooltips="1" connect="1" arrows="1" fold="1" page="1" pageScale="1" pageWidth="850" pageHeight="1100" math="0" shadow="0">
      <root>
        <mxCell id="0" />
        <mxCell id="1" parent="0" />
        <mxCell id="Sqp5UnDWA9D7-Q17COsX-5" style="edgeStyle=orthogonalEdgeStyle;rounded=0;orthogonalLoop=1;jettySize=auto;html=1;" edge="1" parent="1" source="Sqp5UnDWA9D7-Q17COsX-1" target="Sqp5UnDWA9D7-Q17COsX-2">
          <mxGeometry relative="1" as="geometry" />
        </mxCell>
        <mxCell id="Sqp5UnDWA9D7-Q17COsX-1" value="" style="shape=image;verticalLabelPosition=bottom;verticalAlign=top;imageAspect=0;aspect=fixed;image=data:image/png,iVBORw0KGgoAAAANSUhEUgAAAgAAAAIACAYAAAD0eNT6AAAACXBIWXMAABAmAAAQJgGDtkwVAAAAGXRFWHRTb2Z0d2FyZQB3d3cuaW5rc2NhcGUub3Jnm+48GgAAIABJREFUeJzs3Xl8VNXBN/DfubNlX0kIEHYRZIcEUVABd0FUtG6trdZau7y121OtS5+Walvbp8v71Lbat4t7tYJVEUStCogosiQIyL7vECCQZJLMcu897x9Bq0Ims9w7596Z3/fz4eOSyZkfMJn7m3PPPdcDIgeqqal5pmfPntUHDhxYAUCqzkNElGmE6gBEn3XmmWeebhjGRgBCSvkegG/U19evUZ0rE40cOTI/EAiUASjXdb1c07QyAJBSCgAln328ECIIIAqgTdO0sJSy3TTNRq/X27B8+fKj6U1PRKlgASDHqamp+T2Ab3/if+lSyj+Ypnn/Bx98cFxVLjeaPHmyNxgMjgAwGMBAAANN0xwghBgIoBuAHAufLgrgMIDDQogDUsoGIcRm0zS3eDyezeFweMuaNWtaLXw+IkoBCwA5ymmnnRYoLi4+BKD4FF9ulFL+MhAI/HHp0qXt6c7mBjU1NT4hxIWmaU7WNO0sKWUNgHzVuT5hL4AtUsp1mqYt1zRt2fLlyzerDkWUjVgAyFFqa2unSilf6eJhe4UQM/v37//47NmzjbQEc7gxY8bUCiFuE0J8DkC56jwJapRSLgOwDMCycDi8ZN26dUHVoYgyHQsAOUpNTc3fAHwlzodvkVL+pqio6MlFixaF7MzlVGPHjj1NCPELAJ9D5vw8hwEsklLOlVLOW7Vq1S7VgYgyUaa8YVAGuPbaaz3bt28/AKAiwW89COAhwzAeyZY1AmPGjKkQQvxYCPE1AD7VeWy2RggxTwjx0ooVK1aoDkOUKVgAyDHGjRs32jTNVSkM0QLgKSHE31auXJnKOI41ZsyYvpqm3QHgdgCFqvMosEEI8bhhGE+vWrVqv+owRG7GAkCOUVNTcweAhywabj2AJ/1+/1+XLl3aaNGYyowdO7YGwHeEEDcC8KrO4wAmgPlCiF+uXLnyXdVhiNyIBYAco6am5jkA11k8bJsQ4jUp5b8AvFJXV9dk8fi2GTlyZKXX671WCPFFAONV53GwdwHcX1dX92/VQYjchAWAHKOmpmYvgF42PkUYwJtSyjkej+etFStWbLfxuZIyevToEk3TrjrxSf8CAB7VmVxkiWma961atWqx6iBEbsACQI4wYsSIUr/fn+6p+p1SygUAFgohFtfV1e1O8/Pj7LPPztV1faJpmucDOB9ALXjQT4kQ4jmPx/ODZcuW7VWdhcjJWADIEcaNGzfBNE3V53IbhRCrpJQfSCk/EEKs93g8u6za4rampqYbgBEAhgshhgMYIaUcCyBgxfj0Ka1Syh/V19c/hI71AkT0GSwA5Ag1NTW3Afir6hydaAWwE8AuAAdO/HcrgCYAzVJKAwCEEKWf+J5KAN3RcUqjO4CeOPXuhmSvBQC+rGJ2h8jpuJqYnGKw6gAx5AMYduLXSYRgj3aw8wF8MHbs2Bvr6+tfVx2GyEk01QGIAEAI0Vt1BspYpUKIV2pqan6oOgiRk7AAkCNIKXuqzkAZzQPglzU1NQ+Dpz6JALAAkHPYefkf0Ue+UVtb+2fwvY+IPwTkGN1VB6DsIKW8vaam5leqcxCpxgJAyl177bUeOOue9ZT5flBTU/N11SGIVGIBIOW2b99eoDoDZaWHxo0bN0F1CCJVWABIOV3XWQBIBZ9pmk8PGzaMrz/KSiwApFwgEOD0P6nSPzc395eqQxCpwAJAyum6zr3vSRkp5TfGjBkzSnUOonRjASDlhBBSdQbKaprH43lAdQiidGMBIOVYAEg1KeX02traM1XnIEonFgBSTtM0FgBSzjTNr6nOQJROLACknGEYIdUZiIQQ148fP75IdQ6idGEBIOUMw2hWnYEIQL6u6zNUhyBKFxYAUq6kpCSoOgPRCRepDkCULiwApNyiRYt0AO2qcxABuBC8WyBlCb7QyRFqamr2gncEJAeQUq4QQuSf+PcNQoj3TNN8atWqVYdVZyOyEgsAOUJtbe0KKWWt6hxEnYhIKR+LRqP3rF279pjqMERW4CkAcooDqgMQxeAXQnzN7/dvGDt27CWqwxBZgQWAnIIFgNyguxBiHm8lTJmABYAcwTTN/aozEMXJC+CRsWPH/h/VQYhSwQJATrFVdQCiRAghHqqtrb1BdQ6iZLEAkCNomrZFdQaiBGlSysdqa2vHqA5ClAwWAHKEcDjMAkBulCOl/OfEiRMLVQchShQLADnCiUureJ01udHp4XD4QdUhiBLFAkCOIYRYozoDUTKklN8YO3bsuapzECWCBYCcpF51AKIkaUKIP1577bUe1UGI4sUCQE6ySnUAohSM3LFjx82qQxDFiwWAnIQzAORqUsr7J0+enKM6B1E8WADIMVauXLkZQIPqHEQp6BUMBm9THYIoHiwA5CRSCLFEdQiiVEgpfzhs2DC/6hxEXWEBIEeRUi5WnYEoRdW5ubnXqA5B1BUWAHIUTdPeVp2ByAK8WRA5nlAdgOgzRE1NzR4AvVQHIUqFEGLEypUrP1Sdg6gznAEgp5EA5qsOQZQqKeVXVWcgioUFgBxHCDFPdQYiC3xp5MiR+apDEHWGBYAcR0r5JoA21TmIUlTi9XqnqQ5B1BkWAHKcurq6NgAvqc5BZIEZqgMQdYYFgBxJSvmU6gxEqRJCTOPOgORULADkSAMHDnwDwAHVOYhSVBgMBqeoDkF0KiwA5EizZ882ADyuOgdRqqSUPA1AjsQCQI5lmuYfAURV5yBK0QWqAxCdCgsAOdaqVav2A3hedQ6iFA0YP358teoQRJ/FAkCOZprm79CxORCRa0Wj0QmqMxB9FgsAOdqqVatWApijOgdRKoQQE1VnIPosFgByPE3TfgTAUJ2DKAW8EoAchzcDIleoqal5BcBU1TnIuSqLizC8Ty+UFOSjPRLB0eYgdh85ioPHmlRHAwBomtZnxYoVe1TnIPqIV3UAoq5MnjzZ29LSUqs6BzlHXsCPIb16YHjfaozoW41hfXqhsrjolI89FmxF3badeGf9ZixcuwFt4Uia03YwDOMyAH9R8uREp8AZAHK82tray6SUvENgltI0gX4V3TC8bzWG9+mFEX17Y2CPSmgi8bevtnAE81Z8gCcXvatiZuCluro67glAjsECQI5XU1PzNIAvqM5B6VFeWIBhfXp9fLAf2rsn8nMClj5HVDfw9Nvv4e9vLkYokratJhrr6uoqAJjpekKiWFgAyNFGjhyZ7/P5DgHgbVUzUMDnxZBePU4c8Ksxol81epSWpO359xxpxN1PzsKmfQfT8nxCiBErV678MC1PRtQFrgEgR/N6vZeAB/+MIIRAn25lGN63GsN698Lwvr1wes8qeD0eZZl6dyvDY9++Dfc/Nwev1a+1/fmklOcAYAEgR2ABIEfTNO1cKbkPkBsV5+WeOG9fjWF9emJ4n2oU5eWqjnUSv9eL+2+8GkV5uZi1ZLndT3c2gD/b/SRE8WABIEeTUp6nOgN1zaNp6FtZjtH9+2JUv944o3dP9K/sBpHEQj0VNE3gzqsuQ3s4grkrPrDzqUbZOThRItzx00lZaeLEiYWhUKgRLKqOVF5YgGvOrsVZgwdiSHUP+L3u/2vSDQO3/fExfLh7r11PEQmFQoXr1q1Tcy0i0Se4/yeWMlYoFDobfI06ztDePXHDueNx0ajh8HnVnb+3g9fjwS+++Dnc+NtH0BoK2/EUfr/ffwaA1XYMTpQIvrmSk41QHYA65AX8uGTMCFw1fiyG9emlOo6tepaV4GuXTMbv5rxuy/hCiMFgASAHYAEgJxugOkA20zSBUf364PLa0bho9DDkBfyqI6XN9eeMxwtL67Cz4YjlYwsh+LomR2ABIMeSUvZ3yyKyTDKgqgIXjhqGaTWj0Ku8VHUcJTyahpvPPwc//edLlo8thOhv+aBESWABIMey+I0yEvD5vOFolHfA/AxNCIwe0BeThg3GpOGDUV1epjqSI1w2dgT+8MobaGxptXRc0zQ5A0COwAJATtbPwrHWL3nw3pIDx5r67Th0GNsPHcaOQ4ex/eBh7Gw4gmAoZOFTOV9lcRHGnz4AZw4agLOHnIaS/DzVkRzH6/HgolHD8dySZZaOK4SosnRAoiSxAJAj1dTU+ADkWDmmEMLXs6wEPctKMPGMQZ/6WkNTM3YcOoLtBxuwo+EIdhw6jG0HG9Dc1m5lBGV6lpVgdP++GNmvGjUD+6F/9wrVkVxhyoghlhcAAN2sHpAoGSwA5EihUCiQk2Pp8R8AfJ19obK46ONPxZ/U2NKK7YcaOsrBoQbsbDiCbQca0Bi0dlrYSt1LijC4Vw+c3rMKg3tVYXifalQUF6qO5Uoj+vaG1+MxdcOw8tRROTr2YOEWl6QUCwA5Un5+fsAwDKuH7bQAdKasMB9lhf1Re9qnlyM0t7VjZ8MR7D58FLuPHMXeo8ew90gjGppacLQlCLu3Ly4vLED3kiJUlZagd7cy9K0oR//uFehbUe7I7XbdKuDzone3suCOQ4eLLBzWV1NTU1RXV5f2+xETfRILADmSYRh2XHOWcAHoTFFeLkb2642R/Xqf9DXdMHCkOYiGpmY0tbWj+aNf7e2I6AZa2tsBCLS0t+OzPSEv4IfXo6EwNxcBnxd5fj9K8vNQnJ+Hkvw8lBXko6K4MCN23XOLqtKiVosLALxebw4AFgBSiu8i5Eher9ej67rVw1pWAGLxejyoKi1GVWlxOp6ObNatsKjN6jF1XQ9YPSZRonhJFDmS1+u149NRWgoAZRafV7N8334pZfbsqkSOxQJAjvTuu+8GAUQtHpavd0qY3+u1+nUIIQRnX0k5viGSU0kAxy0cj1sKUlJ03bB8RadhGNm18QQ5EgsAOdkxqwYS3FOYkqSb0rR6TI/HY8utBokSwQJATrbfqoEEZwAoSYZpWF4A/H4/CwApxwJATrbeqoE4A0DJiuqm1acAZCQSabF4TKKEsQCQk220aiAhOANAydFN3eoC0FhXV2f5wkKiRLEAkGOZpmndDAA4A0DJ0U3Lt+xtsHg8oqSwAJBjaZrGUwCknG5YOwMgpWQBIEdgASDHqqurOwBgpxVj8RQAJUvXrV0DqGnadksHJEoSCwA53SIrBmEBoGSZ0tqbUkkpN1k6IFGSWADI6RZZMYiQPAVAyYkall8FwAJAjsACQE630JJR+EqnJBnWFwDLrm4hSgXfFsnR6urqdgPYnOo4nAGgZOmmpacAjtfV1aX8eiayAgsAucGsVAfgVQCULMOQlr12hBDvA7B8Z0GiZLAAkONJKZ9JdQwuAqRkGRYuAjRN833LBiNKEQsAOV59ff0GAOtSGoQzAJQk3bCuAAghFls2GFGKWADILf6ZyjdzJ0BKlmFadgqgCcASi8YiShkLALmCruuPAUh6/3QhrDuPS9nFlJZdBDCf9wAgJ2EBIFdYvXr1PgAvJvv9nAGgZBmGadVrZ55F4xBZggWAXEPTtN8n+728CoCSZVEBCIZCoZctGIfIMiwA5BorVqx4D8DyZL5XgFcBUHIMC24GKIR4Zt26dUEL4hBZhgWAXEVK+btkvo8zAJQs0zRSfu2YpvmYFVmIrMQCQK5SX18/G8AHSXwrCwAlxZSpvXaklCvq6+t5/T85DgsAuY0phLgv4e/iBAAlyTRlqu+TD1gShMhiLADkOitXrpyPBO8SyJ0AKVmGTGkR4Or6+nqu/idHYgEgV9I07T4g/tVZXARISZPJzwAIIX6MBF6nROnEAkCutGLFiveklHEvrOI+AJQsUyb9PvnvlStX8tI/ciwWAHKtQCBwJ4CGeB7LqwAoWT1KiwYm8W0RIcS3LQ9DZCEWAHKtpUuXNgohfhDPYwM+T57deSgzeT3e3ES/R0r5i5UrV26yIw+RVVgAyNVWrlz5tKZpb3X1uFx/oDAdeSjzmNJM6PFCiMUDBw78mU1xiCzjVR2AKFly0bxzAfmlQ8ePn/mF3/0Fx1vbOn3s8dY2NLe1oygv4Q9zlOUMI6ECcCQajX5+9uzZ1t1DmMgmPC9KriKlFFg070oIeR8gaj/6/++s34zvP/osZIw7t/WpKMdvv3wD+nevsCSLYZpoDYVhmCbawpGO/w6HYZoSreHwx183pUSwPQRTyv/8dygMeeKfpml+6p8A0NIeAgAU5uagKC8XfSrKMKRXD4we0BdlBfmW5LeDKSU+3LUXG/cdwMa9B3C0JYjWUBjhqA6vR0Ou3w+vR0NeIPCpf+b6/fBqGvICfng9HuT6ffB6PB//96f+v+Y55ePsMuPBh7DnSGOXj/N6PPjVzdftm3TG4JvF+dO7nJUiUo0FgFxDLp57JiQehkTNqb7+uzmv45nFS2OOUZCTg5/fdA0mnjEo7ucNR3UsXLsBSzZsxvo9+7G/8Th0Q80HPE0IjO7fB5eOHYHLx42G3+uMSbxN+w7ixffrsGDtejS2tCrLUZSX21GU+vfBZTUj0btbWUrjbd5/EF/902NoPVHMOiOEwE9vnIGpNSMBQELid6hsv1cMuy6SUgAiG7EAkOPJ11/PR07kN5C4HTHWrUR0Hbf98VGs37M/5niaEPjWtAvxpSkTYz4uqhv4x+Kl+MfbS3EsqO6g1pluRYW4ecpEXHfOmfBoapbzbDvYgIfnv4XF6zfHnH1RQQiBCUNOw3cuvxgDqhKf9Xmtfi1+NvtlhCLRLh/7nekX44uTJ3z2f78PX/RKMfHquK5UIUo3FgByNLlw3nAIOQvAGfE8/nBTC27+/V/R0NTc5WOn1Y7Cj669Aj6v56SvbT94GD98chZ2HDqccOZ0G1LdAz++/kqc3rMqbc9pmCYee+sd/P3NxYjqzj7d7dE0fOOy83HzlImI52pQwzTx+7lvdDmb9JGbJk/Ad6df3NmXd0BiqpgyfWP8iYnSgwWAHEsuePlKaOIZAAldwrd5/0Hc9sdH0RbuevZ17IC++M2Xb/jU4sD6bTvxvUef7XLa10kCPi9+cv1VuHjMcNufq7mtHT94/DnUb9tp+3NZ6eLRw/Gzm66BFqMENLa04u4nZ6F++664xpxaMxI/vXFGV8XiIExzsjj/Sl4WSI5y8kcfIgeQb8+7FQJPAQgk+r3lhQUYWFWJN1avQ1ez0geONWHhhxsxYcggFOflYtO+g/jWX55y1cEf6PjUumDtBuQHAhjZr7dtz9PQ1Iyv//mJLk+zONG2gw043NSC84YNPuXX1+3eh2/8+QlsPRjfjP3l40bjJzdcFbNQnFAAIWbM/PKNL/708WePJ5aayD4sAOQ4cuHc2wD8FSm8PvtWdkNpQT7e3bi1y8c2tbXj9VVrcVqPSjww62UcaW5J9mmVW7Z5O7oXF2NIdQ/Lxw6GQvj6I09g+0HnnxbpzMZ9B9CrvPSk0yUvLavH3U/ORnN7e1zj3HDueNxzzeXxHPw/UgSIKTNvnvH0T5+YzYWB5Ag8BUCOIhfOvQoCz8Oicvrs4vfx2zmvWTGU7Xxez8eXw+UG/JBS4mhLEOGontA4mhD4y//5Mkb37/Px/2uPRLB+z37sOHQYB481obk9hJb2dgghUJKfh5K8PFR3K8WQ6p7oW1F+0qJC05S4469PYdnm7QllEUKgrCAfOX7fSZdHqlKUl4sX7r4DJfl5iOg6fvPSa3hh6cq4vlfTBL41tesFpDHMFpOnX5fsNxNZiQWAHEMumDsKGpYCsHS3nqcWvYffz/23JWP5vB6M6tcHlcVFkJCfOmD7TlyX7vN6kePzwuf1fvzfHdevf/Jxfvi8HuT4fB8f+DtzLNiKZZu3Y8HaDVi0dgPMOFbb9ygtwe9uvRHvb96Gt1avx4a9+2GY8W1oU5CTg7OHDMR5Qwfj/JFDEfB5EypS1eVluHTsCJw/8gwM6F4Br+fUXe6z+yPEu49Cx+MiME/80zAN6IaJ9nAEG/cdwP7GrmfZb794Mq46ayzuenwWPty9N67fV17Ajwe+cA0mdXIKIW4CN4tJ059MbRCi1LEAkCPIhbMKIHJXAkjx3fXUHl+wBH+a/1ZKl6pdOGoY7pxxGcoLCyxMlpitBw7hd3Nex/ItiX0ST1ZRXi4uHTMCL69Y1eXlcEV5ufjqRZNw7cRxnR707SalxJur1+PBf81Dc1vn0/nFebnwaBoa47y8s6q0GL+79UarrrQ4DgPDxQXT91kxGFGyWADIEeTCeX+DkF+x8zleXr4Kv3h+XlKb+EyrHYWZN1wV12VkdpNS4pHXFuDRN99RHeVjfSrK8b9f+Tz6VJSrjgKg40qQLz/0t4RPn5zK8D7V+O2tN1hb/CSeEFOm32LdgESJ4yJAUk4umDMRmvgDbC6kg3v1wNDePfH2uk2IJlACCnNz8KevfQl+nzN23RNCYNygAcgL+PH+5m2q46BPRTkeveMr6F5SrDrKx8oLCxDVjbgv5+vMJWOG47e33oDC3ByLkp0gMHLml77wyk+feOaAtQMTxY93AySl5KxZHmjaw0jTbNSEIYPwl29+GRXF8d8c8NyhpyM/J+GrEW130+QJuKxj61ll8gJ+/PqW61GS77y7LU9N4c/Go2n4zvSL8bMvXGPXdssaNPNeOwYmihcLAKlVmXMdgLQexYZU98Az3/86zho8MK7Hdyty7p2Ef3j1VKV3OPzKhedhYFWlsuePJdm/t5L8PPzh9pvwxckTbD7lI66Sb82P70VIZAMWAFJGSikAcbeK5y4tyMcfvnoT7ph2ITQt9pt8PDsKqlKQk3OqPejTorQgH9dOPFPJc8cjmUsNh1T3wJPfvR1nDhpgQ6KTaPCaX0/HExGdijNOalJ2WjzvIqT50/8nCSFw8/nnoH/3Cnz/0Wc7fVxr2Nm7Al5zdi0eeXVBzMsDi/JyMWXEEIwd0A+De1WhqrQYBTk5kFKiMdiK/Y3H8eGuvXh/8zYs27w9roWS08eNtvU2vKlqiyRW3GacVYM7Z1yW3jssSnm9lPIuIYSz7qREWYEFgNSRuFl1BAA4e/BpMb/eZtGmNc1t7Xht1Vqs39NxTX7/ygpcOnYEepaVpDRuUV4uRvStxuqdezp9zIv3fBvFpzhVIIRAeWEBygsLMKJvNW487ywcb23DrCXL8ew776OlPdTpmIncUrkzppRY9OFGLNu0Dc3t7eheUozJw4d8ahOjZLWGOs/+SX6vFz+8ehquHD8m5edMQm+8Pe8sAPHdeYjIQiwApIRcMqcQOq5SnQPo2NzH7/Uiop/6krFDcdxZsCsL127A/c/NOemA+tc3FuHrl0zBzeefk9L4Ywb0jVkAjgVbT1kATqUkPw+3XzIZm/YdwNvrTn3/Gk0TGNk3tXsO7DnSiB889k9s+8ze+08veg/njxyKmTdcldIMw8FjTV0+pqq0GP9z83UY2rtX0s+TMoGLwQJACnANAKlheC5Cgnf5s1NZYX6nX9vZcASmmfwM7fIt23H3k7NP+Wk6qhv4wytvxn3r2c50dVXD0ZZgwmO2xJj5KMnPO+VtlON1vLUN3/jzEycd/D+yYM16/PCJWSlt3LSz4WjMr585aACe+u7tag/+ACCRWvsjShILAKkhzcmqI3xSz9LOp+FDkSgOHEvuJm5SSvzqX690uQ3vI68uxLE4d6U7lbKC2JvUtCd4PhxAzJ30SvM7L0zxePTNd7r8hL5001YsWLsh6efYfij2Xf2+d8UlKC1I7fdhkbM6FsQSpRcLACkiJqtO8Em9yktjfn3jvuT2a9m47wB2HY79SRToOEB3Nt0ej64KRgJ3rYvre+K9r0BnXqtfE9fjXl/1YdLPsWnfwZhf715SlPTYFivAgnk9VYeg7MMCQGknV670ARiiOscnDerZPebXd8dxED+VPYcb435sss8BIOZiPQBJ7c2f6/d1+rVUroxoC0fi3oN/V8ORpJ7DME3sO3qs068X5eUq3T/hJELGXolKZAMWAEq/5n0DAHR+dFFgSK8eMb++/dDhpMbNiXEQ/axYdwTsyv7Gzg92QHJT9rF2PzzaEux00WRX/F5Pl3svfCTZP5NdDUdj5hvcy5Kb+ljHIxQvRKBsxAJA6SdE6tePWWxIdc+Yi9o2dzGd3JkRfavjnn4f1T/5VfVdFZRkLjWs7lbW6ddMU2Jnkp/OvR4PhlbHd7xL9s9ky4FDMb9+RrXTZtyFultMUtZiASAFtNQufLdBXsCPEX2qO/36toMNSR3wSgvyMa12VJePO6O6J2oH9k94fKDjWvo1MS4BLC3IT+peBn27uLPfBzt2JzzmR26afHaXj/F7vbj+nPFJjf/WmvUxv56mnf7iJyULAKUdCwClnzAds/rqk84eEvs07CsrVyc17g+uuizmfeTLCvLx85uuiXta/LM+3LU35hqA4X2Sm10e1CP2uoj3NmxNalwAuHDUMFx3TufbCGtC4EfXTU9q5qK5rR1L1m/u9OsBnxdjBvRNeFybpX7fYqIEsQCQAsLie6ta44KRQ2N+/ZWVq5M6752fE8DfvnUrbjzvrE+d0/Z6PLho9DA89b2voU8Xn7Zjea1+bcyvj0pyV70RfXvHPAf//uZtON7altTYAHDXjKm479rpJ63GH9q7Jx75xs2YWtP1zMmpzFv5Qcy/p4lDBiHgkFs7f0yIxDdqIEqRw34KKDuIdsB5W5/3qSjH0N49sX7P/lN+vaGpGc8tWZ7UzXfyAn7815WX4o5pF2LHoSOIGjr6VXZDQU5qXSgYCmF+XexL6s4clNypBZ/Xg9H9+2DpplN/0tcNAy8sXYlbLzwvqfGBjv33rxo/FruPNKKptQ3dS4pTujwvGArhsbeWxHzMJWNHJD2+bQyz620LiSzGGQBSwHTsp53Lx42O+fVH31yMphgb5HTF7/VicK8qDO9TnfLBHwCeW7IcwRh73neUmuQXmF80eljMr//znWUp3y1RCIG+FeUY2a93ytfmP/bWkpgbKpUV5OPcoaen9Bz20HaqTkDZhwWAFBDJbauXBpfXjkZhbucH5pb2EH4/999pTNS5hqZmPLEg9qfdy8amdrPFC0cNi3kaoDHYir+98XZKz2GVbQcb8Oyd8MokAAAgAElEQVTi92M+5nMTx6X3bn/xEtFtqiNQ9mEBoPQTIvnVYzbLC/gx46yamI95efkqvLx8VZoSnZqUEg8893LMT99+rxdXnx3799KVvIAfl9XELhHPLH4fa3ftTel5UtUWjuCux5+Lee4/L+DHtRPGpTFV3PaKKTMcW4opc7EAUPp1a9sGB696/tKUiV1eNverF17B5v3J7Q1ghUffeqfTc/MfueqssSgvTP3qslvOPyfmToK6YeC+p59HY0vy9zJIhZQS9z83p8stlz9/3tlO2fv/s2JP4xDZhAWA0k4Muy4CiM6v01KsJD8PN0+JfYO2cFTHHX95Glu72HDGDvNWfIA/v7Yw5mNy/f4ufw/x6llWgivOjL02Yn/jcXz37/9Aa4w7CNrBNCV+9cJ8vLl6XczHlRcWxLX3gBryHdUJKDuxAJAi0hknjjvxhUlnd3lp3tGWIG5/+HGs270vTamA55Ysw/2z5nR5m9yvXjzJ0pvdfPOyC7r89Lx+z358/ZEn0jYTYJgmfvLPF/H8eyu6fOx/XXmpJYsubSDhFfNUh6DsxAJAakgsUB0hloDPix9ff2WXm/M0t7XjG39+IqXb1sYjFIni/ufm4NcvvgrTjH3wP71nFT5/3lmWPn9Jfh6+f8UlXT5uw979uOn//r+UdgmMx7FgK77392fxaheXQALApGGDcfGY4bbmSZoQ74lzptv7h0XUicRvEUZkgZm3feEAJL4LB+9FUVVajHBU7/JgFjUMvPHBOuw/dhwj+8XePCcZb6/bhO8/+gxWbt3Z5WPzcwJ4+GtfsuVc96Ce3bGv8Ri27I992qM1HMa8lR/gaEsrhvetTuiGSPF444N1+K/H/olNcdyiuaq0GH/46k0I+Bx176lPkL/66ePPdj2FQWSD5PYeJbKAXDR3FoBrVeeIxZQS3/nrP7pccPeR/JwArpt4Jq6beCYqiguTft72SAQL127As4uXYcPeU29M9FlCCPzyS9d2uaNhKsJRHbf+4W/YFOfNkT66quLK8WMxoHtF0s9rSonF6zbhyYXvxrzvwScFfF78v2/eguEx7vGg2DGE/b3FJZeoWT1JWY8FgJSRb8+dColXVOfoSnNbO25/+PGEFvxpQmB0/z44a/BADKnugarSEhTm5JxyC9rWcBht4Qj2Nx7H9oMNqN++C/XbdqE9ktgGO3ddPRXXTex8f32rHG5qwe0PP4Y9RxoT+r4BVRUYd9oAnFHdA30qylFWmI88fwBez8lnIlvaQ2gMtmLHocNYu2sv3l63MaG1BR5Nw69vuR7nDRucUMY0e1BMnn6v6hCUvVgASBkpZ2p4u2Y1AIeeoP2PY8FWfP2RJ7DtYIPqKCcRQuCOaRfiS1Mmpu05Dx1vxlf/9Cj2Nzrv8nWPpuEnN1yZ9L0E0uQY/L7TxIRLE2tRRBbiIkBSRoiZJgR+qTpHPEoL8vHI12/GyH7J3Z/eLn6vFz+9cUZaD/4A0L2kCI99+zbHTa/n+H34zZdvcPrBH4B8gAd/Uo0zAKSUnDXLg8rctQDOUJ0lHhFdx69eeAVzlqndCRDoWOD2wOevVnpr24iu48Hn52Huig+UZfhI725lePCL12JIdQ/VUWITqEN+j7NFbW1UdRTKbiwApJx8+5XzIM1FcNHr8a016/E/L8zH0RY19zWaVjsKd864zDHXtr+9bhN+MXuukj8PIQSm1ozEXTOmdrmDowOEIbRxYtK02PdwJkoD17zhUmaTi+Y9BshbVOdIRHNbO/7y70V48f06hKPp2dl4ZL/euGPahUo/9XempT2Epxa9h2cXv5/wAsZknd6zCnfOuMyRfx6nJPENMWX6n1XHIAJYAMgh5JI5hdC1FQAcvWz7VBqDrXh60XuYt+IDNMa4FW2yNCEw8YxB+NyEcZgw5DQI4ewf26MtQTz/3grMWbYKDU3NtjxH7Wn98YVJZ2PikEFdbtbkII+IydO/qToE0Udc85NDmU8ufGU0hPkegFzVWZJhSomVW3fgzdXrsHrHHuxoONzlrn2dyfH7MHZAX0wYMgiThw9BVWmxxWntZ0qJ9zdtxbsbtmLppq3Y3cXNemLxe704o7oHJg0fggtGDkWv8lILk6aBEHOQX3Utz/uTk7AAkKPIt+deD4lnkAFXqLSFI9i07wAOHmtCY7AVh443IXSKUwWFuTnI8fmQ6/ehZ1kJBvbojuryUng01/8RfEpTWzt2NhzBjkOH0dTahmAojFA0etLpE00IlOTnoSQ/D2WF+RjQvQL9u1e4989D4BV0a7+64yZYRM7BAkCOIxe+fAuEeBR8fZLricdR0fY1HvzJifgGS44kF738TUA8BN6vgtxJB/BjMXn6g6qDEHWGBYAcSy54+Upo4hkAeaqzECVgFyC+KCZf/o7qIESxuPSkGmUDcf4VcyDMcwBsUp2FKA5RSPwWXnMED/7kBpwBIMeTr7+eD3/09xDyVvA1S85jAOJfkPInYsr0jarDEMWLb6bkGnLBnInwaL+HRI3qLEQAGiHwDICHxKTpW1SHIUoUCwC5SscdBMdeD4g7AYxRnYeyzg4Ab0HiFVS2z+fqfnIzFgByLblg7gXQ5C2AuBJAoeo8lKGE/BEk6iHMD8Wkq/aojkNkFRYAcj25cGEOtNaLITEZQk6AxFgAPtW5KCOYmFTnE2KmqToIkdVYACjjyJUrfWg/2Bum2Q8Q1YDouGWelLcBGKc0HLnNcTF5usv2HSaKj1d1ACKrndhvffuJXx+Ti+YOAwsAJeaY6gBEduE+AJQ9JA6rjkCuc0R1ACK7sABQ9tBEg+oI5Dp7VQcgsgsLAGUPU+xWHYFcRoKvGcpYLACUPTRzm+oI5DaSMwCUsVgAKHt0a98FwFAdg1yFW/tSxmIBoKxxYte2napzkIuY3g2qIxDZhQWAsoxcrToBuUYIR4M7VYcgsgsLAGUbFgCK1xpx3XU8ZUQZiwWAsoxYpToBuYTECtURiOzEAkDZRWIpAKk6BrmAkMtURyCyEwsAZRUxZfoRcGU3xUOI91VHILITCwBloyWqA5Dj7RGTpm9RHYLITiwAlH0E3lIdgRzvDdUBiOzGAkDZRxP/BqCrjkEOxpJIWYAFgLKOOPfyYxCCC7yoM1Fo4lXVIYjsxgJA2UnKOaojkGO9Lc69/JjqEER2YwGg7CT12eDlgHQqAi+pjkCUDiwAlJXElBk7AfA0AH2WDlP7l+oQROnAAkBZTDyjOgE5zmtiyrSDqkMQpQMLAGUvGX0KQLvqGOQgEk+ojkCULiwAlLXElBnHIfGC6hzkGA1o98xVHYIoXVgAKLtp2l9URyCnkH8TU6eGVacgShcWAMpqYtK0xQCWq85ByumQ3kdUhyBKJxYAIsj/VZ2AlHteTJm6V3UIonRiASCShbMBsVN1DFJGQmi/UB2CKN1YACjriSlTdEj5c9U5SJk5YtK0tapDEKUbCwARABT2eALAdtUxKO1MCPN+1SGIVGABIAIgamujEPip6hyUdv8Uk65cpToEkQosAEQfOa/uaQArVMegtInA8PxYdQgiVVgAiE4QYqYJof1AdQ5Km9+LC6ZuUx2CSBUWAKJPEJOmLYbEc6pzkO32QLbz3D9lNRYAopNo3wXA+8FnMlN+T0y5Lqg6BpFKLABEnyGmTDsIIe5WnYNsIsQccf4VvOUvZT0WAKJTOW/aXyHwluoYZLmjMMXXVYcgcgIWAKJTEEJImJ5bABxXHIUsJe8QU6YdVJ2CyAlYAIg60bE3vPym6hxkmSfF5CueVR2CyClYAIhi6DhgSN4y2P22wGt+S3UIIidhASDqiiz8DoB61TEoaa0Q2jXinCtbVAchchIWAKIuiClTQhDycwCOqM5CCZOQuIU3+yE6GQsAURzEpCt2QGIGgLDqLJQI8YCYMv151SmInIgFgChOYsr0JRDiawCk6iwUB4nnMGklb/BE1AkWAKIEiEmXPwEpvq86B3VpEdo9Nwsx01QdhMiphOoARG4k3375PkjxM9U56JTqkeOZIs6a2qw6CJGTcQaAKAli0hU/hwALgPOsgR69mAd/oq5xBoAoBXLh3N9A4L9U5yAAwFpInC+mTOfVGkRx4AwAUSomX34nJH6vOgZhOfToFB78ieLHGQAiC8i3534HEv8X/JlSYQG85lXc6IcoMZwBILKAmDT99xDiNgBR1VmyzJOoaL+MB3+ixPHTCpGF5MK550DgXwAqVWfJcBIS94sp02eqDkLkViwARBaT78wbAEO+BGCE6iwZqgkSt4gp019SHYTIzXgKgMhi4tzLt0MWnAngIdVZMtAqSLOWB3+i1HEGgMhGcuG8myDkwwAKVWdxOQmBP8EsuFNMmRJSHYYoE7AAENlMvvVKX3jMRwGcrzqLSx2ClLeJKVfMUx2EKJPwFACRzcQF03ZhUt1FEPgugKDqPC4iATwGv28oD/5E1uMMAFEaySVzekLXfgngi6qzONwWSPFNMeXyN1UHIcpULABECsiFr1wKIX8LyKGqszjMMUA+gIrQn8Sw6yKqwxBlMhYAIkXkrFkeVObeCuCnAHqozqNYCEL+GT7/A2LCpY2qwxBlAxYAIsXk/PkB5Js3wzAehqZ5VOdJswggH4f0PiCmTN2rOgxRNmEBIHII+eIT+xAI9EQgB/BkfA9ohMBfIHwPifMuPaA6DFE28qoOQEQnSEiEwkAoDPh8QE4A8PlVp7KWYUTh0b6LcOAJccklrarjEGUzFgAiJ4pGO35pGhAIAH6/e2cFpATCESAcBgz9sLj65odVRyIiFgAiZzNNoL2945fHC/h9Hb88Dv/RlRKIhIFIBIjqqtMQ0Sk4/F2EiD5m6EC7fqIMaIDX23GKwOcDhOrlPBKIGkA0AuhRQDcU5yGirrAAELmRYQJGpGNqHQA0T0ch8Ho6Zgc8WsfpA1vIjgO8ceJXVO8oJ0TkKiwARJnANICIAXxy6xxN+88vj6djlkAIQBOA0ACIU1wHJE+MB0CaHb9M2XGgN2XH80jz44cRkXuxABBlKtPs+EVEdAq8GRAREVEWYgEgIiLKQiwAREREWYgFgIiIKAuxABAREWUhFgAiIqIsxAJARESUhVgAiIiIshALABERURZiASAiIspCLABERERZiAWAiIgoC7EAEBERZSEWACIioizEAkBERJSFvKoDEKkih83078wJjhHCXytgjjQMcyCkWWZKWSxNWShNmQsBTUjANKUvkbE9Xo+u+by61+uNeryaoXk0QxOaqfk6/gkhpBACQhPmx3lCRneR47H+N+ogZpvZ/dilv9yWhqc6DgEpTeiaEEclzKOQ4qjUxBEBuUea2g4pIzvLJuj7xMyZZtfDEWUeoToAUTrsPPfnPUR78xelifN0Qz9D6maPaFTPhUxtXE3T4Mvxwev3wxfwwef3weP3JvWDVXRTJbS8DC8ArSaa/3FIdYxPigBYB4m1QsNaSLEqEmpfVrloZlB1MCK7sQBQRto+4b6+Wti4w9CNi01dPy0aNXIhUzzaA/B4PPDnBeDP8cOfE4DX74FVP0YsAI5hAFgDId8VJhaZhniz7M27m1SHIrIaCwBljP3j7744FJX/ZUb08dFwpDj1w30HX8CHnPwc+PNy4ff7bPupYQFwLB2Q7wqBV4XueaH4jbu2qA5EZAUWAHK13ePuO0839PuMcOTcaETPtWpcr9+H3IJc5BTkwutLz1IZFgDXqBdCzpLC98/S+T/YpToMUbJYAMh1GibPLGhtbr/fiOqfj4Sj3a2Y2gcACIHc/BzkFuUjkBuwZswEsAC4jglggYD8S3FheI6YPTOiOhBRIlgAyDV2j7x3uO7RH462RyYahmHZJawerwf5xQXIK8qH0NT9SLAAuFoDIB/xmt6HC/99Z4PqMETxYAEgx9tZe89UI6L/LhwKD7bs0z4AX8CP/JIC5ObnAEL9j0LR9RXQijP7ylyzyUDzc5l7fJRACBBPejXjt0Xz792sOg9RLOrf9Yg6sXPcfRP0cORv0fbQGdYd9gGv34uC0iLkFuTAST8Chdd0g6c8oe0GXMc4EkXLC0dUx0gHExD/0qR5b/Hr92xVHYboVJzz7kd0wu6R9w6PIDor2h4+Q6Z6of4neHweFJYVO+7A/5GC6eXw9vCrjmErfX8EwXlHVcdIp6gQ4u8eQ/sJTw2Q0zjvXZCy1v6amXlh2fp0qDVylTRNy16bQgjklxaioKQAwgFT/Z3Jm1QM/+A81TFsFdnYhrbFWXlJfRCQvy0R+Q+KV78dVh2GCOC9AMghdtX+8K6W9qbj7S2hGVYe/HMLclHZtwqFpYWOPvgDHefHM52RBb/HThQA4ifHZduaY5f8aorqMEQAZwBIse0T7utrBiOvRtrDZ8DC6X7No6G4ogQ5+ZZtDWA7X98A8i8pUx3DVq2vNyK6K+s/AEtAPu2Jyu8VvXVvVp0PIWfhDAAps7PmngeijcHtkfaQpQf/vKI8VPapctXBHwD0gxl+GbkE9INR1SmcQADii6ZP+7Dx0l9MVR2GshdnACjt9pw9syzaHlwQao2MsvLALzQNJRUlyClw14H/kzL5SgDjcBQtL2bFFQCJkBLirxFT+37Vv+9sVR2GsgtnACit9px1z9VtTU0HQq1hSw/+/lw/Knt3d/XBHwCiuzN3ejy6J3N/bykQAvL2gGYsO3rZL4aqDkPZhQWA0mZnzT0PBRtb/2VEdUuvdcsrykNZz27QvO5/OUe3tKuOYJvo1sz9vVlgmCa1ZccvffBa1UEoe/AUANlODpvp3+5rey/c2l5j6cCaQEm3EuQWZtalc4VXd4OnW2adBjAaomh5idP/cZBS4NelBQPuFbOvy9pLJig93P+RiRxt64SZlVu1lt1WH/w1TUN5j24Zd/AHgPDazDsVHF6Xeb8nmwghcVdTy455h6/4VaHqMJTZWADINjvG3TvabG7aEQ1Fuls5rtfnRXl1Bfw5mblrXmRrO8wmXXUMy5gtBiLbQqpjuIqEvNQbke8cufxnvVRnoczFAkC22DXurgsiwbYVeli39CO6P+BDeXUFvL4MvmmOBEKrM+cTc6g+CJhW3s0ha4zy6N53jl/86/6qg1BmYgEgy+2svWdqqCX8uqEblh6l/Tl+lPWsgKZl/ss2srENeoP7r5k3DkcR2dSmOoab9YdmvNd48c+Hqw5CmSfz30kprXaPu+/6UEvbXMMwLb2xfSA3gLKe3SC07Fm32v5uk5VXSqafKbN1339LSaBKaJ63Gi/99UjVWSizsACQZfaM+9Gl7S3BZ0zTtPR15cvxo7RHueP38reacTiKUF1QdYykheqCMI66fxbDISoFjDe5VwBZiQWALLFr3F0XtLW0zDMMiw/+AR/KqrLv4P+RUH0L9L3u20BH3x9G6AP3lheHqtCk9u/j0x4coDoIZQYWAErZvtr/HhMKRl6zetrf6/ehrEc3aJ7sfpm2LjjuqqsCjOM6Wt887u7TF87VSxrizYap/1OlOgi5X3a/s1LKNtX8V7fW9tZ3rF7wp3k9KKsqy/qDPwDIkIngvEaYQefvC2O2mmid3wgZMlVHyWT9fdKcd/DiX+erDkLuxndXSpocNtPviWCtHola+0akCZR1L4Mnky/1S5DZaqB1vrNLgBk00PrKUUdnzBgSNQHNeE5eO8vSWTfKLiwAlLQdvuD7kVDE4qlIgdLKUvgydJOfVBjHdQRfOgqj0XmnA4xjUQRfPgrjuPOyZbBpx1p2PKg6BLkXCwAlZefYu/8Qag2PsXrc/JIC5OS7+45+djLbDARfPorodufcWCe6M4TgHH7yV0FA/uD4Jb+8TnUOcqfsXFpNKdk1/p7PtR1rnS2ltau8ArkBlPUoB7J0xX+iAsPykXNmIYRPzZ+XjJoILQsivD5zdi10qaApcVb563evUx2E3IXvtJSQrRNmVhrHmvYYurW39NW8HlRUV3LRX4K0PA9yxhfCPyi9sybRXWG0v9vET/3OsS5Y6B/Xe/b3nTM1RI7Hd1tKiAgG37b64A8IlFSU8OCfBLPNQNvC4wjOOwp9X8T259P3hhF8+ShaX3f2gsQsNKwgGP4f1SHIXTgDQHHbMebuX7QHW++xetz84gIUdSu2etis5Kn0ITAkD74BuRB+a368ZUQiur0d4Q1tMA5zZz8Hk1LgyrJX756rOgi5AwsAxeXwOTNPP3r42Aart/n1+ryoqK4EsmiP/3QQHgFvnwC8vQLw9fRDK0nskkrjuA59fwT63jCie8KAwV193EAAB+GRQ0teueeY6izkfLzQmuLS3BJ8zeqDPyBQVFHCg78NpCER3RFCdEcI7QBEQMBT7IVW6oOWJyD8GuA78dcZNSEjJsw2CfNYFEaTARnmRj5uJIEqGOLXAG5TnYWcj++81KXtY374o1Cw7QGrx80rykNxRanVwxJlOymkvLjk9XveVB2EnI0FgGLaMfq7JeEwDptWb/Xr0VDRuzsX/hHZQWBLSUFouJg90/6VoeRafPelmKQIzLb64A8AhWXFPPgT2UViUFMw59uqY5CzcQaAOrV75L3DW8PBNdKUlr5OvH4fuvWu5IuPyF4tUU07vXL+XQdVByFn4kcw6lRURF+w+uAPAEXdinnwJ7Jfodc0Z6oOQc7FAkCntKv23osibaFBVo/rzwkgkBuwelgiOgUB3Hr8sv8ZqDoHORMLAJ1SNBz5mx1XfheWFdowKhF1wiel8d+qQ5AzsQDQSXbX3HNVJBzuY/W4gbwc+PnpnyjNxE3Nl/5qsOoU5DwsAHSSiB75LWz4+F9QUmD9oETUFY8B/EB1CHIeFgD6lH21/z0m0h4ZYPW4voCPn/6JlJFfPHzJz3uoTkHOwgJAnxI2wg/b8+mf5/6JFAp4heebqkOQs/BqLPrYjtHfLQm3m42mxZf+aR4Nlf2qIPhyI1LpSInIqxavfjusOgg5A2cA6D88/getPvgDQF5hPg/+ROp1a0LrVapDkHOwANDH9LB+o/WjCuQW5Vk/LBElTErxVdUZyDlYAAgAsH/83RdHw3qx1eMGcv3w+njXaSKHOP/4tActX+RL7sQCQACAUMS8Fzas/sspzLV8TCJKmjBNzYaZPnIjFgACAOjh6FlWjykgkJPPAkDkJEKa16nOQM7AAkDYNf6ez+lR3fKL9P15OdA0vsSInEWMPHrZL4aqTkHq8d2ZYESMb9kxbk4BN/4hciJNalerzkDqsQAQ9Ei01vpRBXLycqwflogsIC5VnYDUYwHIcofPmXm6HtXzrR7XF/BC83isHpaILCHParrkd2WqU5BaLABZLtge/q4dW//6c/npn8jBPBKRC1WHILVYALKcqUcvsGPcQB7P/xM53GTVAUgtFoAsp0eMfpYPKgT8Ab/lwxKRdaTAOaozkFosAFlsz/g7Bxm6YfmR2uf3Qmjc+5/I4YZxHUB2YwHIYqbuvcmO3f98OZz+J3IBzdAi41WHIHVYALKYaRjn2jGuL+CzY1gispoUo1VHIHVYALKYaZqD7BjX6+fNf4jcQANGqM5A6rAAZDE9alRaPqgAfH7OABC5gYQcqToDqcMCkKWOjp9ZZBjWLwD0eD0QggsAiVzidFnz/9jYsxQLQJZqM/UJkNYvAPR6+V5C5CK+pqrG3qpDkBosAFlKGtGxdozr8XH7XyJXMdFPdQRSgwUgS5kQttwOlAWAyGWk1l91BFKDBSBLmaYNOwAC8PAGQESuIqXsozoDqcECkKVME7bsAMY7ABK5ixCym+oMpAYLQJaSkEV2jCs8fEkRuYkptXLVGUgNvltnK9PMt2NYj4eXABK5CWcAshcLQJaSUtqyYb/Q+JIichWBEtURSA2+W2crKW35u+cmQEQuI8F7d2cpFoAsJe36u+fxn8htePvOLMUCkK1MO/7uBQQbAJHL2HM6kJyPBSBLSSktP1Lz0E/kRoL7d2cpFgAiIqIsxAJARESUhVgAiIiIshALABERURZiASAiIspCLABERERZiAWAiIgoC7EAEBERZSEWACIioizEAkBERJSFvKoDkGI5XmBQJURZPlCUA/hSeUkItJYXdfybYcIT0uGJmBBRA0JaE5eIUhA1IEJRoD0KNLZCGKbqRKQQC0CW2blz55i2trbvRA81aUahH4YApEz96Oz1epGTk4NoIACfzwePt+OlZaQ8MhHZwjAhGlog9h0vPfj4wa94PJ75FRUVB1THovTh/VuywP79+/Oam5t/EQ6Hb4lGo8VWjSuEQF5eHvLz8+H385biRC4nASyWUj5cVVX1ohAiqjoQ2YsFIINJKb0bNmx4JBQKfdk0TY+VYxcUFKCoqAiaxmUkRBlotxDivysrK58WQvA8QYZiAchQW7Zsuba1tfUJXddzrRw3EAigtLQUXi/PHhFlOiFEvZTylqqqqrWqs5D1WAAyjJRS27hx44utra1XWDmuEAJFRUUoLCy0clgicr4QgHuqqqr+V3UQshYLQAbZsWNHTjAYXBUOh4dYOa4QAuXl5cjJybFyWCJyESHEE5WVlV/l2oDMwQKQIVatWlXi8Xi2RiKRcivH1TQN3bp14yI/IoIQ4tXm5uYZgwYNCqvOQqnjCq4MsG7dOr/X611r9cH/o0/+PPgTEQBIKS8rLCx8TkrJRUAZgAUgMywPh8PVVg9aVlaGQCBg9bBE5G5XHjp06DeqQ1DqWABcbsOGDb9ub28fZfW4hYWFyM219AICIsoc3zl06NAM1SEoNVwD4GI7d+4c09jYWGeapqV/jz6fD927d7dySCLKMEKIYwDO6N69+yHVWSg5nAFwsebm5n9ZffAHgJKSEquHJKIMI6UslVI+qDoHJY8FwKU2btx4ayQS6W/1uHl5eTzvT0Txunn//v01qkNQclgAXCoajf7MjnG50Q8RJUDzeDw/VB2CksMC4EKbN2++KBwO97B63MCJO/kREcVLSnn1wYMHLZ+NJPuxALhQNBr9sR3j5uXl2TEsEWU2jxDii6pDUOJYAFwoGo2Os3pMIX1joesAABxfSURBVAQv+yOipEgpr1GdgRLHAuAymzZtOkfXdctX6fl8Pt7al4iSNXL//v19VIegxPAd32VM07zejnG58p+IUiGEOFN1BkoMC4DLGIZxlh3jcr9/IkqFpmmWn5oke7EAuIyU0vI9/wHA4/HYMSwRZY8BqgNQYlgAXMY0zQI7xmUBIKJUSCktvzSZ7MUC4DKmadpysp4FgIhSIYTopjoDJYYFwGWEENKOcaW0ZVgiyhJSSkN1BkoMC4DLCCFMO8ZlASCiFEVVB6DEsAC4jBAiYse4LABElAohRJPqDJQYFgCX0TTtsB3j6rpux7BElD22qw5AiWEBcBkhxG47xmUBIKIU7VAdgBLDAuAymqbV2TEuCwARpehD1QEoMSwALiOlnGvHuJGILUsLiChLmKZZrzoDJYYFwGXOOOOMJXZcChiNcgEvESXteFVV1S7VISgxLAAuI4QwfT6f5attTdPkaQAiStYqu/YoIfuwALiQ1+vdZse4PA1ARMmQUnL634VYANxphR2DcgaAiJKhadoq1RkocSwALiSlfM2OcTkDQETJME2TBcCFWADc6VUhhOWDciEgESWhvaqqarPqEJQ4FgAXGjZsWMTr9bZaPa5hGDAM3s+DiBKyRgjB84cuxALgUh6Px5ZLbjgLQESJ4AJA92IBcCmv12vLDx0LABElQgjB8/8uxQLgUlLKN+0YlwsBiSgRXADoXiwALhUKhebYMS5nAIgoAXo4HOY9AFyKBcClxowZc9zn84WsHlfXdZimafWwRJSZ1vfv39/y9yFKDxYAF/N4PPvsGJezAEQUD57/dzcWABfTNG2tHeOyABBRPKSULAAuxgLgYpqmLbRjXBYAIooHFwC6GwuAiwkh/mXHuLwSgIjiIHNyclarDkHJYwFwscGDB+/zeDyWf1zXdR1S8s6eRBTTtrKyMstvTU7pwwLgcl6v95DVY0opeRqAiGLiAkD3YwFwOY/Hs8GOcVkAiCgWLgB0PxYA93vHjkFZAIgoFk3TWABcjgXA/V60Y1AuBCSiLnygOgClhgXA5YYOHfqhpmmWb90XjUa5EJA+FtV1NBxtxJFjx3nLaAKA/ZWVlQdVh6DUeFUHoNR5vd6jkUikwsoxpZTQdR0+n8/KYcll9hw8hIXv12Hrrj0wTmwR7ff5cMbAfjj/rFp0Ky1RnJAU4fR/BmAByAAej2czAEsLANAxC8ACkL3erV+NVxcvPWkmKBKNYvXGLVi/dQc+d+n5GD5ooKKEpBALQAbgKYAMoGnaUjvG5ULA7LVm01bMf/u9mKeBorqOWfPfxO79nAnONrwEMDOwAGSGeXYMyoWA2Smq65j/9ntxPdYwTby88B2uF8kypmnWq85AqWMByABDhgx5Rwhh+TswZwCy0+qNW9DS2hr34w80HMGBw0dsTEQOc7yqqmqX6hCUOhaADCCEMH0+n+VbcpqmCV3XrR6WHG75mvUJf8+eA5ZvSEnOtcqODxyUfiwAGcLr9W6zY1yeBsguBxqOYN+hhoS/LxTm6yRbSCk5/Z8hWAAyxwo7BuUMQHZZ8WFyO0sXFeRbnIScijsAZg4WgAwhpXzNjnE5A5A9ItEoVm/YnPD3CQEM6N3LhkTkRKZpsgBkCBaAzPGqEMLyQbkQMHus2bQVoSQKX79ePVFcWGBDInKg9qqqqsRbIjkSC0CGGDZsWMTn8wWtHtcwDG792gUpJZqDrQiFw6qjpGT5mnVJfd+4EUMtTtK5UDiM5mArLztUZ7UQgucFMwR3AswgmqbtBmD5u3E0GoXH47F6WNfb33AYi5bXY/OO3YieWCtRWlyEUUMG4dyaUcgJBBQnjN+Bw0ew79DhhL8vLycHwwYNsCHRf7SHwnin7gOs2bgFx5pbAAA+rxeD+/fFpDPHomdlN1ufn/6DtwDOLCwAGeTE7ly2FICcnByrh3Ut3TDwxrvL8G79mpM+iR5rasaiZXVYtW4TbrryUvSstHyHZlskc+kfAIwdNgReG8vh/obDeGrOq2gOfnpfgqiu48Mt27Bu63ZMHDsSF00cb2sO6sAdADMLTwFkEE3T3rBjXC4E/I8Dh4/g4X88jyV1q2NOQzcFg3jixfknHbicKBKNYs3GLUl9b+3wIRan+Y/mYCsef/GVmH+GUkosqVuNh//xPDcjSgMuAMwsLAAZJBQKzbFjXC4E7DjQvLPyAzzy7As4dLQxru8JtrXh9SXv25wsdas3bklq8V//6p6oKCu1IVGHVxcvRWtbe1yPPXS0EY88+wLeWfkB1wfYRw+Hwx+qDkHWYQHIIGPGjDnu8/lCVo+r6zrME7eCzUZNLUH8/fmX8do7SxNeELl28za0h5y9OHDF2uSm/88cad/iv7ZQCB9uSWxvK8Mw8No7S/GX515C43HLN8YkYH3//v0tf38hdVgAMozH49lnx7jZOgtQv34THnryOezYuz+p7zcMA3uT2FkvXVJZ/Df0NPsW/+092JB06dx94CD+9I/nUb9+k8Wp/n979/od1XWeAfzZ55yRZkYSFwHSkZAEQsiDJAg3BVfFXIK5xg6GyJBg4yRN3LRO4nalbfIHNGv1U7valebmlWR1pXGc2oCvsWMMBgccYwwWCAMSyGAQlkDiKgkhjebM7H4geGGDQBrtM+f2/D4zDxt0Oe/Z+917BxvX//2HTYA+o2naBwCUX9CeSCSQ7aGu9pG61t+PF7f/CUdaTo44y80zAHsb09v6N3e6vc1/1/pG9qLZPzCALVt3oPnkKaxZughRNrGOGHcA+A8LAJ/RNG0ngDWqc4M0A9ByqhVb3nhrWDfi3UluNKIkR7WBRAIfHPswrc/OrbGv+Q8AcnOiSnKOtJxEa3sH6pcvRuXkMiWZQcUGQP/hEoDPCCG22JEbhJ0ACcvCyzt24zcvvqrs4W/oOkrMAiVZqqXb/DeldKKtzX8AUFZUqOzsiZ7eXvzmxVfx8o7dn5zXQMMmw+Fwo9ODILVYAPhMLBZr03Vd+eu6ZVm+7q5u6ziPnzy9CXsbD0PlP7N2RhWyQiF1gQqlu/c/Eyf/ZYVCqJ1epSxPSmBv42H85OlNafU8EE7k5+ezs9JnWAD4kGEYyi9nl1L6chkglUph59738dSzL+DC5StKs8eNGY2ldfOUZqpytvMC2jvTaP6LhFEztdyGEd1q+fx5yB89SmnmhctX8NSzL2Dn3vcDvbNluNgA6E8sAHxI1/X07nS9C78VAJeudOGXz72E7e+8p/y+A3PCOHxr3WpEwu5snNyb5rn/c6unZexY6HB2Nh5f9xDMCeOU5iaTSWx/5z388rmXuF1wiNgA6E8sAPxptx2hfioAGo4ew38/vQmtZ88pzRXi+hT5331lLUbnuvOGvHSb/4S4vqSRSaPzcvHEhnosrJ0N1bddtp49hx//9jm8c+DWI53p0zRNYwHgQ9wF4ENSyucB/KvqXD80Avb29eGFbX9C04mPlGfn5USxdtlixMonKc9W6WDT8TRP/puI8WPH2DCiOzN0HSsW/BUqJpVgy9YdSo9XTlgWXn3rz2g5dQZfXr4YeTk5yrL9hDMA/qT+AnlyhYaGhmQqlVI6wyOEQHFxsfI3sUxRvb3vZjWVUzyz3/ynv9uE9s7hn5v/1QeWYcY9U20Y0dD1x+N4ZefbONik/kr6nEgEa5ctQlVFZnocPKTdNM2JTg+C1OMMgE8ZhnFxYGBA6VV0UkpYloWQS7vaB5OwLGx9+128e/ADpR3+ABDOysLKhXUZ6YxXoa3jfFoP/2gkjGoXPBjD2dlYt/J+VFVMxovb/6T0kKXevj48/fLrmF0dw+olC1y7e8MBfPv3KRYAPqXr+jEAyu+iHRgY8FQB8PG5Tmx6/U3lHf4AUFZsYt3K+5V3qtsp3XP/59ZkrvlvKKZXVqDULMTmrTtw8oza068PHD2GUx+34+EVSzC5pFhpthdJKRucHgPZg02APqXr+h47ci2PHKQipcTOd/fbsr1P13WsWliHb69f46mH/0AigUPpNv8p3JOvyui8XHyz/ktYtbBOeXFyubsHv97yCna+uz/wDYJsAPQvzgD4lJTyVQA/UJ3rlUbA57e9hYYjzcpzzQnjsG7l/TDHq92algkHmo4jntbJfyWONP8NhRAC982dhamTSrHp9Tdx7vxFZdmpVArb9+zDlZ6rWLtssbJcr+ERwP7FGQCfmjZt2m4hhPJXFy9sBWxsblH+8BdCYEHtLHxnQ70nH/4AsD/N6X8v9DeY48fhOxvqsaB2lvIm1f2Hm9KaOfGJK6ZpnnZ6EGQPFgA+JYRIhUIh5aecpFIp1y8D7Nqv9oXlxlTzygXqp5ozpa2jcwTNf5PVD8gGuq5j5YK/LM2MGa00e/f+g0rzPOSAHS8S5A4sAHzMMIwTduS6eRmgq+eq0mng2dUx/MNj6zGl1Nu7oNI997+2pspzRU9ZsYnvPlKP2dUxZZntneeVnj/gFWwA9DcWAP62z45QN88AXO7uUZKTFQphw4PL8fCKJQhnu/M436GKDwzgg+PDrwWFAOZOt/faX7uEs7Px8Iol2PDgcmXb+S51dSvJ8RI2APobCwB/22pHqJtnAEKGmrfVgUQCzSdPY8ADPQ93czDN5r8KFzf/DUXCsnCq7SwSlpqvYVYoeD3TbAD0t+B9RweIlPI1IYTybUxubgTMHz0amqYpuentwNFjOHO2A+tW3o8Ss0DB6Jyx/3B6d0N9/nPub/4bjOrzHzRN89SWT0X6TNNUf+QiuQZnAHyspqZmIBQKXVWdm0wmld+ep0oknI2KshJleTeuj93x7n5PXh/78bn0mv9yIhFUTZmsfkA2S6VS2GHD+Q9Ty0o8vxSUhkYhhHvX+2jEWAD4nKZprXbkunkWYMX8e5U2rqVSKby5Zx9+8X/qDxWyW9on/01318l/Q3G5qxu/3vwy3tyzT2mxpmkals2fpyzPK3gBkP+xAPA5IYQtP8RuLgCKCsZj7dJFyh9gbR2d+OnvNmPvoSOeOB1uRM1/Nd5p/pNSYu+hI/jxb5/DqbazSrN1XcfaZYtRXKD8VG3Xs+t3B7kHewB8TtO0bQAeVZ3r5kZA4Pr2vbGjR+H5N3bi4hV1xyEMJBJ4+c1daD5xCl9e/gXk5USVZat2sKklvea/slLPNP/19F7D82/sxPFT6ie6xo8dg7XLFmPyxCLl2V7ABkD/8+a9rjRkBw4cGJNMJi+rzjUMA6Zpqo5VLmFZ2Pbn9/DOgUblNwHmRCJ4aOlC1EydojZYkZ/+bjPaO88P+3OPPLgCNZXu/Dfd7MiHJ/HS9l3o7etTmnv9eOGZuL/u8wgZgX1Hsvr6+vLKy8v7nR4I2YcFQAA0Njb2JRIJ5RfVFxcXQ9O8sYp0ovVjbNm6E11XlfdEYnplBdYsXYRI2D1NYmfOdeAXv39+2J/LjUbxw8c3unr9Pz4wgD/u2pN2f8Od5EajqF/xBdwzuUx5tsccMk1zptODIHsFtrwNEk3T2gEof6VLJBLI9khndEVZCb63cR2e3/YWmk58pDT7cMsJtHWev359rEumi/elefKf25v/TrWdxeatO3DZhkN5aqZOwZplixANK6+VPYfr/8Hgjdc3GhFd1w/ZkevmRsDbiUbC2Lh6JepXLFF2OtwNl7u68atNL+EPb72NpMPbBfvjcd81/93Y3vfrzS8rf/gbuo4HFs/HI19awYf/X3AHQDBwBiAANE3bCWCN6lyvFQA3zKmOocQswLOvbVN6b4CUEnsOfIDTbeewbtX9KMgfqyx7OBqbW9I6wXBqWSnGKb5ER4XOS5ex6Y9vptXPcDdFE8Zj/ReXOva1cis2AAYDZwACQAixxY5ct+8EuJOC/LF4YkM96mbNgOLbY9HeeR4/f2aLLZ3pQ7H/cHpXIdfOqFI8kpE79tFp/PyZLcof/kIAdbNn4O83fJkP/1vJcDjc6PQgyH4sAAIgFou1GYah/HXdsixP7IcfjKHrePAL9+Gxh76InEhEafZAIoFnXtmKzouXlObezZmzHWk9LPNyoq47+e/chYv4/R/eUH4fQ040gq+teQAPLr4Phov7HRx0Ij8/X/lV4uQ+LAACQtf1DtWZUkrPLgPcLFY+CU8+th6Vk0qV5iYsC3/ctUdp5t28l+7JfzXua/57fdceJBTfPFk5qRRPblzPLv87YANgcLAACAhd19O7EeYu/FAAANffgL++9gGsWlgHXeHWxpbTrejpvaYs707643EcTrP5b47Lmv+6r/biw9YzyvJ0TcOqhXX4+toHXH14kxuwATA4WAAEx247Qv1SAAA3DoCZhSceqUfhuHwlmVLClua12znYlGbz36Qy1zX/tXWcV3Zwkzl+HJ54pB73zZ0Fobrhw4c0TWMBEBAsAAJCSjn8U2GGwMuNgIMpmjAe3330YSyoVfPAUL2GPZj9R9K89ne6+5r/0jnC+LOEEFgwdxa+80g9iiaMVzCqYOAMQHCwAAiImpqaI5qmKd+gnkgkPN0IOBhd17FyQR2+9fBqjBmVN6KsvJwcRaMaXOvZczibxrW/eTlRTJsyyYYRjcxI/8/HjsrD4+sewsqFda7rbXC59sLCQuX9QuROLAACxDAMdZve/0JKCUtxo5ablJcU48nH1uPemdPT2i4YCWejtKhQ/cA+I/2T/6pc+YAsNQsQTuOUSSEE7p05HU8+tt41pzJ6DN/+A4QFQIDoun7Mjlw/LgPcLJyVhdVLFuBv16/BhGHuGa+bNUNpU+HtjOjkv+qYDSMaOV3X8dezZwzrM/ljRuOb9V/C6iULkJ2VZdPI/E1K2eD0GChzWAAEiK7rtuxJ8/MMwM0mFRfhexvXYdG8OUN6qE+eWIRF8+bYPq6DTS1pbZernFSGfJc1/91s0bw5mDSEt3hd17F43hz849e+gimlEzMwMv9iA2CwsAAIECnlq3bk+n0G4GaGrmP5/Hvx/W9swOdilYMuC0yvrMDG1asyctBMus1/bjz572aGruOx1asGvZpYCIFZVffg+1//KpbNv5eH+ijAI4CDhXtiAkRKqTU0NFhSSqVfd03TUFxcrDLSM9o7L+Dt9w/izLlO5EYiKBg3FrOrYxlbf25tP4ennn1h2J/Ly4niB99y97W/NzvVdhYHjh5D58XLuNrXh7KiQsyf8zkUF0xwemh+cqWwsDBfCOG/rl66LV4GFCBCiFRjY2NXIpEYozI3lUrBsiwYRvC+nYoLxmP9qqWO/f3pnvxX69Lmv8FMnljEpj77NfDhHyxcAgiYUCg0/G6xIQjSMoBb9PWne/KfwFwX7v0nZ3H/f/CwAAiefXaEBqUR0E2OfXQ6zea/Uowd4T578h82AAYPC4Dg2WpHKGcAMu9U29m0Pvf5GdWKR0J+wAbA4GEBEDBSytfsOA/dT3cCeEU6b/95OTmIlfMmPLpFn2max50eBGUWC4CAqampGQiFQldV5yaTSSSTSdWxdAd50eHfalc73X3X/pIrNAohuI4XMCwAAkjTtFY7cjkLkFkVk0qG9ec1TUMtm//oNtgAGEwsAAJICGHLDzsLgMyaWlaC4oKh33I3c1rliC/ZIX+y63cCuRsLgADSNG27HblsBMwsIQTqly8Z0rn3+WNGY9XCugyMiryIDYDBxAIggPr7+1+0I5czAJlnThiHb6x9AKNzcwf9MxMLC/Dt9WuQE4lkcGTkIVY8Hj/s9CAo83gUcEA1Njb2JRKJsOrciRMnwo5dBnRn/fE43j/SjCMffoTLXd3ICoUwIX8sZlfdg+qp5fya0J0cMk1zptODoMwL3tmtBADQNK0dwO1vWRmBgYEBZKdxjzuNTDg7G/PnzMT8Ofw9TsPD9f/g4hJAQOm6fsiOXC4DEHkLdwAEFwuAgNI0bacduSwAiLyFDYDBxQIgoIQQW+zI5U4AIk+R4XC40elBkDNYAARULBZrMwxD+eu6ZVmQkjeKEnnEifz8/C6nB0HOYAEQYLqud6jOlFJyGYDII9gAGGwsAAJM1/UmO3K5DEDkDWwADDYWAAGmadouO3KtNG6pI6LME0I0OD0Gcg4LgABLJpMv2JHLGQAizzjo9ADIOSwAAqympuaIrusp1bmJRIKNgETu115YWKi8D4i8gwVAwOm6flF1ppSSywBE7sf1/4BjARBwuq4fsyOXywBE7ial5Pp/wLEACDhd1/fYkcsZACJ30zSNMwABxwIg4KSUr9qRyxkAInfjEcDEAiDgpk2btlsIobxjj4cBEbnaFdM0Tzs9CHIWC4CAE0KkDMNQfhRoKpXiMgCRezXYUfiTt7AAIIRCoRN25HIZgMideAIgASwA6Lp9doRyBoDIndgASAALALpuqx2hnAEgcic2ABLAAoAASClfE0Ioz2UjIJErXTNN87jTgyDnsQAg1NTUDIRCoauqc5PJJJLJpOpYIhqZQ0IIrs8RCwC6TtO0VjtyOQtA5C5sAKQbWAAQAEAIYcsvBRYARO5i1886eQ8LAAIAaJq23Y5cNgISuQsbAOkGFgAEAOjt7X3BjlzOABC5ihWPxw87PQhyBxYABACora3tCoVC/apzLcuClDxwjMgljpaXlyv/OSdvYgFAn9A0rd2OXC4DELkD1//pZiwA6BO6rh+yI5fLAETuwB0AdDMWAPQJTdPesiOXBQCRO7ABkG7GAoA+IYTYbEculwCIXEGGw+FGpwdB7sECgD4Ri8XaDMNQ/rrORkAiVziRn5+v/Opv8i4WAPQpuq53qs6UUnIZgMhhbACkz2IBQJ+i6/oRO3K5DEDkLDYA0mexAKBP0XWdVwMT+ZCU8h2nx0DuwgKAPut/7QhlAUDkqLhlWe85PQhyFxYA9CmxWOxCKBS6oDrXsixYFm8gJXLIttLS0j6nB0HuwgKAbmEYxit25F67ds2OWCK6CymlLVt8ydtYANAtDMP4oaZpyvft9fb2cjsgUYYJIS7bdcYHeRsLALpFLBa7kJWVtV91bjKZRH8/7yEhyiQp5VOmafY6PQ5yHxYAdFuRSGSjHbMAXV1dnAUgypwuy7L+3elBkDuxAKDbqqioOJ6dnf2G6lzLstDby5cRokyQUv5bSUnJRafHQe7EAoAGFY1G1xiGobxzr7u7G8lkUnUsEd1ESnnANM3/dHoc5F4sAGhQ5eXl/VlZWY8KIZTO2adSKVy6dIlLAUT26ZFSPiqE4BncNCgWAHRH1dXVL0aj0f9SnRuPx9Hd3a06logAKYT4m+Li4ianB0LuxgKA7qqqquqfIpHIJtW5PT096OnpUR1LFGhCiH8pLCzc4vQ4yP2E0wMg7zh69Ogr165de1B17pgxY5Cbm6s6lihoJIB/5ro/DRULABqW5ubmn/X29j6hev0+Ly8Po0aNghD8liRKQx+Ax03TfMbpgZB38LctDVtLS8u63t7epy3LylKZm52djfz8fOi6rjKWyO+ahBBfLSwsPOT0QMhb2ANAw1ZZWblJ0zQzHA7/WWVuPB5HR0cHrl69qjKWyK/iUsof9fX1zeHDn9LBGQAakebm5vmJROJ/4vF4pcrcUCiEvLw8RKNRlbFEfhAH8NtUKvWj4uLiVqcHQ97FAoCUaGpqmpFKpf4jkUgssCwrrCrXMAzk5OQgEonAMAxVsURe1AjgOQC/Mk2z0+nBkPexACDljh49ulAIsTGZTM5PpVJFlmXlSSl1KeWIvt8Mw0B2djaysrIQCoWg6zo0TWPjIPlJSgjRJaXsAnBSSnlM07R3U6nUrqKiolNOD4785f8BbAtxlUazhZAAAAAASUVORK5CYII=" vertex="1" parent="1">
          <mxGeometry x="10" y="510" width="92" height="92" as="geometry" />
        </mxCell>
        <mxCell id="Sqp5UnDWA9D7-Q17COsX-10" style="edgeStyle=orthogonalEdgeStyle;rounded=0;orthogonalLoop=1;jettySize=auto;html=1;entryX=0;entryY=0.5;entryDx=0;entryDy=0;endArrow=oval;endFill=1;" edge="1" parent="1" source="Sqp5UnDWA9D7-Q17COsX-2" target="Sqp5UnDWA9D7-Q17COsX-8">
          <mxGeometry relative="1" as="geometry" />
        </mxCell>
        <mxCell id="Sqp5UnDWA9D7-Q17COsX-2" value="" style="dashed=0;outlineConnect=0;html=1;align=center;labelPosition=center;verticalLabelPosition=bottom;verticalAlign=top;shape=mxgraph.weblogos.github" vertex="1" parent="1">
          <mxGeometry x="18.5" y="270" width="75" height="75" as="geometry" />
        </mxCell>
        <mxCell id="Sqp5UnDWA9D7-Q17COsX-6" value="Github action CI" style="shape=umlFrame;whiteSpace=wrap;html=1;pointerEvents=0;width=150;height=28;" vertex="1" parent="1">
          <mxGeometry x="290" y="162.5" width="850" height="290" as="geometry" />
        </mxCell>
        <mxCell id="Sqp5UnDWA9D7-Q17COsX-14" style="edgeStyle=orthogonalEdgeStyle;rounded=0;orthogonalLoop=1;jettySize=auto;html=1;entryX=0;entryY=0.5;entryDx=0;entryDy=0;endArrow=classic;endFill=1;startArrow=oval;startFill=1;" edge="1" parent="1" source="Sqp5UnDWA9D7-Q17COsX-8" target="Sqp5UnDWA9D7-Q17COsX-12">
          <mxGeometry relative="1" as="geometry" />
        </mxCell>
        <mxCell id="Sqp5UnDWA9D7-Q17COsX-8" value="" style="shape=image;html=1;verticalAlign=top;verticalLabelPosition=bottom;labelBackgroundColor=#ffffff;imageAspect=0;aspect=fixed;image=https://cdn4.iconfinder.com/data/icons/ionicons/512/icon-social-github-128.png" vertex="1" parent="1">
          <mxGeometry x="370" y="262" width="90" height="90" as="geometry" />
        </mxCell>
        <mxCell id="Sqp5UnDWA9D7-Q17COsX-9" value="&lt;div&gt;github action CI&lt;/div&gt;" style="text;html=1;align=center;verticalAlign=middle;resizable=0;points=[];autosize=1;strokeColor=none;fillColor=none;" vertex="1" parent="1">
          <mxGeometry x="360" y="225" width="110" height="30" as="geometry" />
        </mxCell>
        <mxCell id="Sqp5UnDWA9D7-Q17COsX-12" value="" style="shape=image;verticalLabelPosition=bottom;verticalAlign=top;imageAspect=0;image=data:image/png,iVBORw0KGgoAAAANSUhEUgAAA+gAAAFcCAQAAADxblwlAAAC2HpUWHRSYXcgcHJvZmlsZSB0eXBlIGV4aWYAAHja7ZZdshspDIXfWcUsAUkIieXQ/FRlB7P8OdBcO/a9SdVkUjUvgWrAshBwPtF2GH9/m+EvFOISQ1LzXHKOKKmkwhUDj3e5e4ppt7sMj3KsL/ag7QwZ/XK53WIed08Vdn1OsHTs16s9WLsH7CfQ+QKBd5G18hofPz+BhG87nc+hnHk1fXec8/DHbk/w98/JIEZXxBMOPIQkovW1itxPxWNoMYYToVYR8d2Wr7ULj+GbeFoeR3zRLtbjIa9ShJiPQ37T6NhJ3+wfAZdC3++I4oPayxdTHlM+aTdn9znHfbqaMpTK4RzqQ8I9guMFKWVPy6iGRzG2XQuq44gNxDpoXqgtUCGG2pMSdao0aey+UcMWEw829MyNZdtcjAs3WQjSqjTZpEgPYMHSQE1g5sdeaK9b9nqNHCt3gicTghFmfKrhK+Ov1EegOVfqEi0xgZ5uwLxyGttY5FYLLwCheTTVre+u4YH1WRZYAUHdMjsOWON1h7iUnrklm7PAT2MK8b4aZP0EgERYW7EZZHSimEmUMkVjNiLo6OBTsXOWxBcIkCp3ChNsRDLgOK+1Mcdo+7LybcarBSBUMq6Ng1AFrJQU+WPJkUNVRVNQ1aymrkVrlpyy5pwtr3dUNbFkatnM3IpVF0+unt3cvXgtXASvMC25WCheSqkVi1aErphd4VHrxZdc6dIrX3b5Va7akD4tNW25WfNWWu3cpeP699wtdO+l10EDqTTS0JGHDR9l1IlcmzLT1JmnTZ9l1ge1Q/WVGr2R+zk1OtQWsbT97EkNZrOPELReJ7qYgRgnAnFbBJDQvJhFp5R4kVvMYmFcCmVQI11wOi1iIJgGsU56sHuS+ym3oOlfceMfkQsL3e8gFxa6Q+4zty+o9bp/UWQDWrdwaRpl4sUGh+GVva7fpF/uw38N8CfQn0D/f6CJq4J/K+EfD7FXVzkKTWwAAAACYktHRAD/h4/MvwAAAAlwSFlzAAAuIwAALiMBeKU/dgAAAAd0SU1FB+QHFBAmK18eNvgAACAASURBVHja7Z1PjCxJfte/8+YxYJiZtYXEwSt27WUF9SxBtBAqKcEGS8AFMMKwFn2hGiQssmHtltsXI4HECbEcWuqRzCtLXLIkpCdx42AkJFtisSjcu8Jdh1WWQOwYg1iMWLOG9cAyyyaHzO6uqq4/GZkRGZGZn8/T655XU92VERnx+/6+EZEREgAAAAAAAAAAAAAAAAAAAAAAAAAAAAAAAAAAAAAAAAAAAAAAAAAAAAAAAAAAAAAAAAAAAAAAAAAAAAAAAAAAAAAAAAAAAAAAAAAAAAAAAAAAAAAAAAAAAAAAAAAAAAAAAAAAAAAAAAAAAAAAAAAAAAAAAAAAAAAAAAAAAAAAAAAAAAAAAAAAAAAAAAAAAAAAAAAAQF95iypwjqm+JxtfJWmqu62/Jcud7ysqEAAAEPSQEp4o0bR6ZdLo96yr73daVgKPvAMAAILuXcYTqRLxiZdPWFfiLi2RdgAAQNDdknqW8WPSjrADAACC7kjIJ0GvYo2wAwAAgt4EU82OT6K6KoQdAACgtpSnylVE/SdX+riuHgAAAHon5cg6AADAYKQcWQcAANghVdZTKd/8kynlVgIAwFh9edZbX45XBwAAGIwv3+/VEXUAABiJmOcDFXMG4AEAADEf2J8cUQcAAMQcUQcAAEDMEXUAAADEHFEHAADYEfNs5GLO6ncAAOg5BjFH1AEAoP/eHAFn8B0AAHruzXPE+4io49MBAAbBsM9DN7rWLMgnryVJd5KWj68tt96RbP3XVJICnbi+0AUdAQAAQY+XVFcdSuRa0p2Wj8K9apB+PMh7ommn8r7WreZ0BgAABH283nz9KOIr5yWQksq9dyHtC904LwMAAEBLb557n3vOOjzPzCjt4DQ4FskBAEBUZIMR8u6FPaP5AABADPhb0x5WyruTdda9AwBAcNKBS3lXss7QOwAABCTzMgSdRu1Yjaf1Agy9AwBAIGHLPSwRM70pfeah/Ay9AwBAx6QefHkfayFH0gEAADkfwqElrg+hYTYdAAA6IkPMvYo6s+kAANAr6RrWcaJuawYAAMCraOWIeSeizmw6AABEL+fZoMXKlagj6QAAELGcj2P38tRRXSHpAADgXM5ZwW0r6i5qDEkHAIDIxCkbnTi5GXxH0gEAIBo5H+8xoS4G35F0AACIQs7H/RCWC5+OpAMAQGA5z9n5zIlPR9IBAKCVu2TePBafTk0CAEAgOcebux3tQNIBAKCRnOc8Q02dAgDAmKWHvcgP12uGpAMAQHfkDLV7IyNVAgCA2CWHVe11SJF0AACIW84ZEq5HmykNJB0AALy6R+S8K0lnFAQAALzJOb6xy7EQUicAADjqGpHzfkg6oyEAAHCEHDlvmAg1l9fmkg4AAOBUWpjRzVvJa0YaBQAA7kiR81aSnFL3AAAQHoNLbF17bWa1UxbHAQCAC3IcYuvxjXbJTcZMOgAAtCXDnTtJiQx3AQAAwrpLhCS8R28q6Qy7AwCAmu5Yhpz78OjNJJ1n0gEAoLGEwH6P3nZVAekVAAA0FiEcoauxDhepTjNJZ3kiAMDIJShHzh2SO5nRNoyZAACAHRle0Pl4R+ro9zDsDgAAHmUDOT+VIKXOfhOr3QEAoBY5LtBDjbqS1YxhdwAA8OPPEYzjGKd11GR9A+MnAACjFB+GdB9Sm9TR73ErqYYFiwAAcIoM97dRF7ZTCUaZcuXKtmold570pEyKAACAW+83ZKHILUuX7nXFxsukRMY4CgAAHJMwhnI3k5vM8v37aifzMophP5OORwcAGA0pw+0tBD3bWz/G26JB7hYAQKS8DH4FV5bvX2g+kLrPdKPVzmuJpKWFvM721mgi6dbLNc+V7P3MY/c31vtlNup88/smy53/WhEyRoRNC3n4vuppGU/3AFo/gl5DkiZW71/rZkC1f62LPYJet+auDtTdRBOtvcnojaZW92yiNBpJN0qqOp5W13aK2bP2J0l3VaBbeg5xx6eWwn32UD/ZVQu5q6RwGaEIPpXwoYyq2Z/X1fe7R6FfdnA/uqfXactbgT8/txT0y8H4cynTTGc7zSfTrFYZsxM+ea1zbw0z1WvLJOxV8BBWhuiJ89+9rsTdT2g7VtOLZ8mg2zq7D3Y/j8WEMy/17LuFdCN+IUrot/0fa4V+CJG0DIh01Eus9j0pnteadc4Cz15nPZlHN0obnRZXNDqQJnXuJ9JgfcEE3NIp6/Cpie5aSPlYqQnQA7JOSuijfKajvhvjnesl+agfgnq+dM3Ueno8tUiATOfhPo5d/bqUcn+yPk5BzzuJAKFaSHfikDY6g6G9+JlgcaZPZcOfD3C99K58m1pBK4/gEb+Y750JEMj8JFI4dD+CHrqF5J5FPVSyslm+4Qm627KN3p8Pce/2bCcw1xF0e3dsRnT3wou5S1HHobsX9FhaiD9hCCvmLssXo6Aj6vhzHVqtme2Ex7RGuGxyjI0Zyf2LI5S5KzMO3bWgx9VCcg9rAmIqX9ukNlZB56SK1g6v78vh0r0NIN0JUnUEPWvU+A4NzKUtDoPJIruDWYTdPmvZanDoLgU9xhaSOo0yw/KyMQs6+2C2anr9z4b2LXczO106q5H55Q6annm2YKZJLh3XPcwGmMnj0F22oVhbSDrwHpB6aYXDmVgbBNnoMqH98+Pbg+5pjYCZt+xWT3OI5eMYT4+12GfT8dzFfJCDczh0d4KeRdxC0s4jaj/KF7+gRzf0/jKQuNltHzqE3eFWWmim+71bY5jqtaXWmpzYW+2u4dYQV1pKeqOJyu0gnradneth37nXSvZsR3vsvtjcx+ljOd2nh023y9jeSOLwlZc0+5SJ3gTeWqdf3HnY3iWzjDjdtpDXVS9sM+I5a/HT663a31eu5mVzU754meiNx028eiLo11bvXgxkr54LSbOd27/UTBMl1SurKpi99rA/0eRRzG/3dK655jJ6o5lmFnuQlUlK/StIPO2nZhfMys05l9a7s5eZeKLy/AG77W8zr/u6DYtpBC3kYXc3mxbytPN7oqllC7lq1eON5d6NTzu81S3j5q729qVrW77TaYi7KNnzhD3M1q92G76eDWbzPaM3mmxty1pubvgkoQ+bHR4W1dS68252gdsTmXLp1OtvHGu3OaOPTUNNlajUSw3d7a9dbqY589qKx7n16zE33aQW67eQdZXouWkfUnLwvAW397N+PHVXQlMlLj7Ld7wVnntqfw9Ji41GLcacsKcjXklons275Hv+fWzeKW0543N6GUfW+gDXLh9ey1R3ta3xcj/rPgiVO+4pzKH3pYXU3XrVeI6nmafHVzNvi2JDtsJ9S4c5JtqBBAxtFeHuwrdsp7OlJxZbmMiWcZig6ZmpGap939PcS5dnlbtfUeiqhdTbzKbpHc2Dr8auV77c8b3ryoJl3hJ2D3Q/5G43SHtsKONpTlM7/yVNdaeptPG1/PvE9qnjT//yP7xfDik+lOypPhbVgrRip+zl4N3TXFfWagGM+0FTm+txfQrc6c9eWC3z83sltsNynLa2i/2Q++kpqm5aSJ2Bf9fTMn763KHruHJevpCt0PbeDeskUA8DRIcycvP4qFXu5SGEXLkyZdUjXamMjPPsNtsa5DM7mXS28a/d4bpcqZPtI8JtZ+HWC+URTdikzkebcOjtHXo8LcR4uZYsmseq3JcvBodet56HuTm5owGiw1WUBXrW8EHmXQl8viPR+dZn9W2Po3b31J+EZpF1+tRh+ZhDby8JXbeQU5KXe/iNpsflM1HJZ8o8un0HO15BsexUvCvwTephW8T7vWlhGmhVRBbdlg9uAxoO3ecYR4gWknY4hhNiBZLb64nJodcp3Qg9etbSy8W3W/HD2vHscYC+maj3WdDtEi13eWweXb5snAoIDr2tQGXRtRC3V5RF94SQy/KZ6MQziyyB6tWAe+bADYZx70/yHquopx03dB9d8XgaESpbzhx2eBx624AZXwsxTiU4i05eXJYvNod+eoR5ZIPuxsnQbOySvs+7H3fuXYt6FumddfmZobpW6vCqcOhth2zzCHe4cHlNfStf3ptW2Kx/B9815UWnn5ZYvPfwhq9zXfYmhZlopple6173j4ehPBf3uV7p0stWhvtr1v3e+Curq086aE3LQHd82dl9HCp3TvtffC3kWPnstr01UfaAu04+ZRKsfx9jNq6u6m6m1UR9vlY95/5c2tMOPteXc007H3RPI12ekjnL4HHo/qYswp2SlXbiYMPN57q7KhNlD89inkV/0emNrp9VrU9kQiu90qLHqc1ky7dnnradfM65t80Pllald1HaJLhLsGcqiMPhKdgJEUtnPSM5GkFXg24lk2CfvGx8TwYm6IlVpz7dHC86HKb2K+2luOe68vxZPs+tW1klWImGy1IQR9ITZ8q3GvikzPHyuer564D9O+L7F6ug1wuKc5332qfvSrvfrHPt+Vz5pae20DdRRdD74dDjJKEWI3foKxy6JBmLzHtdOyiuBuLTu8D3js42masLF9bP4WtDQ4zivg4h7Yp1nKuLZGI98PL1wKFPLCrMRnrmPZ9PVyfN3/+p8iuLhj7xLGy4ZBz68Eu4HHEPmAT87GW8NqM7Qb/2Go4vdDZ6n77W5d7RirUu9aqTJTIxDbqHvRMxhiEc+tBIRlx2RmX38jLKW9Uku1zpVa0j/Iads841l1Hy2NmXWna42tVO0Md42CBhqI5/Je2Bvjr00Qi6Td7dVILmmjs4LbzPGftc0korKYhcrrSu3dHG6cOQKlqGS2EZb6wjNd5LV0PuqUUou231SRc6G+2MevhQGM8sOmGovw4d6ibwOHQI5NBt8s62PvFCN7qOOntdb4Su5WOZ3/S+md5Y1Hoy8K0vCEM4dBw6qfEgBT2xuFEuwnwp6nEI5H7x3lfKW71u+VkmuEjWH3Qf4yw6YaiOQyftwaGTGkct6FOL7uyK7pfJ7Up3+bW+xPb/UZOVRTgeoxMjDNEuhu/QbzxvYUVqHFjQbXZxdytqc807EfW17hysKLdZVHboN/QJM7pBd8IQDn34Dr2LXk0b2cuLETQ834eTrnWpc11o7qAh3/a+Rd3QJSkzDr0jh94/sSc1HoCg29wmP/Oqc73ysvq93LSljZQbGZnH09bmrRpq39YHj28OkDA0vFZM/yE1xqEH6MwrXejMqVdftDqO1ChTrje613112lqmtJVHj2EO3ubUtfEFJMIQDr0bh05qjKCPoIuuHr36omWTWOtMF42deapc95ptnbBWnpGetLiuvgnk+EI3YQiH3g2zge/zQGq8ly4Wxdk0rG5yzpUuKllNJE2tG8daty2c+fFFerNWnXjq/Uy1OvdwRsciDJHmBXbow97ngdQ4oEMPtcb9FHNd6EKvdKZLLbSu1UjWrQbajTK99hjWJ7pX1iN5G9tucYQhHHpX7WnYE1qkxsEcevystKok2lQdIdnjE8oH09o8lNHNU/GhfTpHlxKGcOjdxK3jcWA54K2bSI2DCXrXu8S17SLbR5sYrRw9L93dsTET3WtRTSuEqEOb3eLG9SQ6YaiOQyftcVNXV52etUhqjKA/a55xZsHtO4VptA3twioFWGi5MQIw01S3Wj6OOOx6n1uP2fsd278ShnDoHXB8vcpEbyJYU0NqPDBBn1o0z2GSNt6j/czikJmpLjRXqqRa5jfZ+6lrPU0eAGEIh95n5icm8YYr6bSRvbygCiKW85kejoNdH5CH9VYTz1Qu9DvfeNp+rbXWWmihS13qTK/0ytGudi4Ss7G5McIQbcIttydb3L2yAS4+JTUO5tDHTbuZ80QrrXQho0TJzm9a6GInWZhWs/3lIj+jpOUiPiAM4dDjZlljxcpMMy0cnDVBaoxDj/Ap9O4wrRfCXVXfV5rvrZ35jke/3vjXSnOtgnThpaf2QRjCocM2q5p7S842dqM0A+h1pMbBHPpYg5hxcB775GjgM1rtnKE+7dkJZmNrG4QhHLpr5hYPw040qSzGw1oa9dS300aCCXr9YDekwWEXci6tNwQ62dukH4bc1lV3vdZNBPW4psMRhnDoHXGu+0YtcVvc1atBeVLjQII+zhOB3Mj56bpdbXj08vtMM0enszeHWXvCEA69y/522Xjh7ZO4l4twN8U95p5MG4neoQ9ny8e0VfeqL47lU9ylR59IOqsy9XJgLbSs109KcOiAQ2/DXHIUczbFXVUMUYTiTmocvaAj58eTnOlByS89TaK5zpRsPIdeDqmFWN+KyyIM0Xb6Kenb8j55XNa7jsq500YQ9N7J+an14g8Sf6OpJtWCuHJXelMJezlP9iDrc24PYQiHjqQ3FnftLKkLJ+4hU+OIp5FjmkMfwkNrqeMu9VQnZm8Xe3ju/E4TTTaGr5+EXZW0zzTTldcNXwGHjkMPK+lLi50l2yamk41heemmY2kP2UaSo603KP6fQx/TFqOu5Xx73f/kSNO6OdDQSmF/OCL2trOaYGNZHDoOvXtWutjYJbKrNj3TTPd6Uz3jTmo8aIeOnDfn1qIjLzTTTFO9OviOOBefjet4FsIQDr0Ln550clDzrrA/LcWdd/BppJxBHPpYHltzL+frrW6RnKjdCy0kTZSPbO81HDoOHXaT97le6fLgGRC+/fprZUoHmxqbo7048NgkQ+6xynk9f74Z/B4k/Q2SjkPvtUMHN069PKYphKyXou4zDoVLjaO2qCyKi1XO1zWHrTa3er3QUq8HfQoyDh2H7tJrhfHPXX7W5lMvqp576UrUZ7r0NvgeLjW+ilnF/Av6svaqy75uMZJ6eVjkvFZiNHmWlUtXmuheZ0g6Dr2nDr0LyXl9IjAPK617EPaH5170+FCr71pOdDGo1Pj4gHvw7cvZ+jVOOV88axjTmmnQXEu9QdJx6Dh07sWB8YFVlfo/ibuqzah8+PTDC3X7mBpfn0hGAxOTQ+/jkLvxIudri6z2+SrxlV4p0wxJx6Hj0KGmuJfD8j7EfaLcg6SHaSPpCTULrmExOfT+DbkbvfHye89b/4ZyNh1Jx6Hj0KGuvG+KuxzOuk+UOR94D5EamxPTNOsxCPqyk52LwuDnRLXLPSJsrMNfOfR+7WkGC3DoOPShe/f5Y/RpO+s+c/5seog2cn3iU+/C2yfm0JuTeWlUiwMNf3Ikb1wd6JSveIANh45DBw/e3VbcrxwfENV9apyfLO9N+FvFc+hNSb2MPKytHfXkZKYdN+PaJBaHXsehQ9ziXm4mfa4zi2fcJyeWk8WdGpsacr6OIdqyU1zTG+xnMdx5g1ocy158OHQcOsQl7eUpEYta7585HS/sMjVOdV+j557HcFNicuj9ESZ/i+Ga5Hgx1htJBg4dhz4WYb/QWa2W7dKjd5MaG6XKa5m3RRyjoRzO0oRrL82JFek4dMCh91PUy0dlT91Z4yzG+U6NTbVSYFLzam7iuBEIuj1+Zs8vjzb1pGcBkKCMQ2/u0El7+kj5qOzxdNblo8mplkq0lKqvT9+b/lfyGGttn8S/jcWMIej2mZuP2fM2ex5PHOa93TOuRXFIFcngcJkr6ewh5YmXONx99O6doC8H1pF9zJ4vTjYIghwOHYfuNgiHSyWvB7s3x8UJb3sVj/R1GL1H6tD74DRTD8Fm0Xrzl9j22DM4URx69A6dFSs+ONf9idgwrHpfxLV11wtaoJVQvR56g8CxUt7gDh36y+poGx9aQnsZW/TuQtCHE8TcD7fXk/NTz2/G9pBYYhUAcOgQwqEPw2Ic/huK217Fqja6dhbfBIL/IXebgB338Szuh9vru/MJIRCHPhqHTtpTNyK9PtCiJgEXai1H0Y/v4hxZZZV7/VzY9XC7u8H2/q5zH9vwKlKFQ3dHEmmLWg+8nS90E2u87WLI/c6qgcbKtfNGcTGIehnC9eLQSfL6SJxeeDXo/nupM13EW8YXo212drjeTMbOnScO3hGnxxrXU+g4dBz6GBLnIaZkay10pleax52wvKQr1+DUwfZ+5bxvIY4jW3Ho7eSAtAdi6a93kpaOj37tuaDXd2GxzgW73bvdVs7rLMZLolpvOfHQNnDoOHTY7T2zEZfefXJ8txOXlurdBMLLjqq+biCLcZ27cdpt7JfCDXcGfXx+FYeOQw/R04bYk87ZGug5Xcyh973aXS6Hs5fzerP3MbkankLHoePQu3HoYwY5DyTo/V7n7nI5XJMH1erO3vdx5np865lx6LQKHDqpcc8Fvc/ZubvlcE22Cay7mc2Ee0gYwqHj0EmNEfSYGt4kMqfpane4daOdm2xW18eSrRuWxBGGcOg4dFJjBD22Rupqd7i1zhutQr/uYbNNPLULgg0OHer3n6GLPalxQEFfWVR/TA3RzXK4hV41WsBhN3sfS73ZrHFfRXAVyJ5t/U3YaQCHTtI8ZkHvZ37u5nG15gfsXfWyRdW/f22HVvs5NMvaXOjCoQ89huPQgwq6TfCNJf+/dtDomh+wZzt7H0ciZCLJnJNBfHasATsZQQsCHDqC7iA0TSIZSGrvz5sOtZef3k9/bnPvbuh+rQKaieQ+dsea8Y0eJPimkyQVh94TQY8lmFy3bG5nrQ5HTawz0DhmNrvcJW4ZZTg7XgfDWMGd9PR3D41lpPFgMpDPQNAPYrMsLobB43bbybTx5s3DWvhQaKzu3cprdzdR1oGtP1kHud+n7qPPHoqg970mk058NQ49qKDbeJMYvOZVi4bWzpvHk9T4zZvbe9VlpOHMnXdYBSrhqTL47KFTr21mWKwCJXxtEglXaTwOPbCg23iT68C10nw7mfbevM9ce2oP3aZkPsOZbamPSdjMm6wmDt7RdGxgErDNDIswpuD42iN3KRkOvUeCHtqfXjVsYi68+emwFltG3uS+rR0E5+P+ZKI0unC2dtxrEk9lmHrqIfGn8n3jLroe4DahxaFHK+g2s+hhB92b+PO1LkftzW3TkDsndXUXnUd/c7IXxD8KUWd/Qj9icerJEhy6XY1cBYgBrzv6JBx6YEGXbnviNu27waLh1q6h/HF4d+UmNC9PiE7WcQ1kJ6TwtkEJ1x2XsO7jmlceku7rEyGch9Zi7wGn7iAOfUCkKmr/yXtxlYUKZR4Cm7G8htB1VpJbXKtxVE/5ybsTU8tpUursxO9MHbe83KLld1t/qdO6SwP2FJfXlUXUA1xfi4k42oFVsCiCDbrnVhKaeqqpZoIedqIiROqRBUm4ml1J7qle00A91K1Y+EiHxiDoaeeJV/MekDqNgxCcLFCw8CFLuceQ0EzQi6CCHubemsB36qHV1BHCtGEJ844kPbWUc3dJpPGUDo1B0Ou0D/+pflrrKlz2bhx6BKTR+8084EB7nwXdBLvOrHb6ZbyUu64M5l5L2DZpMVYJmdu+4C8dGoOg1+0B/iJWWvMKUsdRpY+80NsRHojW0ZBe910ujUDM2wh6uCAVLlUzVtLjTtaNUmUW7Tn1XsJmSYupEZCzE+/Ilck0/Gyf6dA4BL1+VC1biLseYCx6QO645ffRob/lX9Bfdlqgle4sVicmna8cP72+faGbDtbarrTu2SpOmycD7pzW4EqXtR+VmWkmaa07Sctqxe3KIryUrTKRNLW8P4sWbbluCSd6XZXudNlMVZKpTq8XXuvixNr3iSaaaS09fvapT5YSqzq8FRxuH7c1e8BTC9HJ++Si5Wxy7rjUfVzlXlR/ByPo0tJij/RZJ+K56TInJwLbOQ/OHOjkNt3L9SlrcyVWO+9PNJGqn1hXKcZmC00evz4wbRlE1i03HJrrqvZnl+L6VLbt0k0bBMTzmknFRKo+e/8n31Wfbl+LiwgeCo0Zux7w1P63W//yiLXabD1NesHCeeTs53PohaS3hhX682gXxmVBF1bVv5bYFhLaXa2fobK88Qyw/z8uphhMsKtPNxLevtXfOIbc4+8BmZdWD3voeoJ+ZbWb77TDZV6HBxXLXeDwCPY1tw8/B2ycR5uxuxnXWekyyNVfbrT7uRa9rb/h8yraHrBwtCH2EBz6IMN/nMu8siiceTs3FMahZ5GsxM+i9CYmcJto44zT4NfQrr2MyaHH2wN8aQVEQh58gLZe08l7smo87MpPE9H9TAcUzNrXtZ+B7jSCa0DQ+9IDUudRmefQoyOL0KNnUe261qfNX9Oo7qaJxqVknp57z4KnIjFcA4I+hh6AQx/goHve+RVlgcXcfhwjpKDnHTquvoS0zKtc+PbIde5SDNeAoIe6O12lszh0PHorl5lHIub2dRSqkadBh6CPhYIwQa2rFuSrdPWnmfzVsLt0aKyCHjKtddkDcOg9IY1MpnxuDtqtoHdbAts53bTzdpZ1Juu5033oQpQua7CPeOpUNlynQ2MW9Kf7098ecCy+4NCjIiYhSIMuf3OT9IQR9DT6CYHNsJZ7CWLdC7nrsrUtQXvZyJV5maYYu6Bvpn7+hL1sP6mX1h3rUVTREmrXmrT2dp2S72dRTZTPuRrdN/ipsw7LYvTGateoy+DP8ptq09Hme1497a21lLSMpuWYx+1U65braaPWlbMreKjZ+p/ffAvS+rWyn5D3LtR12beSU/fOdz0eSxPYGSQiQe+fGIQYxbDvcl0Kema1oUx8G4Q8ZPhPwTXZG2C3v8e/ycl2uZI9pVl6LYmp9eliu5hoWsn2XZrqbufr093j3u3jHf1p/aD+iD6j79F7+l/6H/pQX9Yv6V/o/46nEmzn3sY3wNJkdrLLnfX6chIcAIAfPq2f1dcPxLyv62f16fFkiP3YpzwcadSCTkIGAGPmfX2gb52Ie9/SB3ofB4okNNtcpisfnJKOAcCI+SF9+BjfvqJ/oD+rz+o9va3v0Wf1F/UP9dXH//uhfhDB4kGFJht9diXoedSr7wEAfPLX9O0quv38gSWOb+mH9cXqPR/rr+LRmYfNIhV0/DkAjJefqiLb1/QjJ975uccZ9p/Co4/d6aVRCjp3DQDGy4/pOypU6Jf1vTXe/b36kgoV+o4+hwcdt9ezH3RPuWcAAN74Q/pIhQp9Ue/W/Il3BpwpswAAB/RJREFU9YsqVOgj/UE8+riH3eOblEjx5wAwUt7Wl6tlcJ+oXtmOdx/pP+uf66f1u7d+6n19RYUKfUlvI1ljFojYHu6zHzPAnwPAUChnz39Lv//xlf1x75u63Pq5z+q3xjGTjkS4THiyqK4Gfw4Aw+G79OsqVOgnN147HP3+7tbP/rQKFfp1fdfQKyll2N1Z7WTcKQAAL/ykChVa62UtQf9/W3bmbf2HZ8kAHn2Em8zkkQi6aXAOEwDAUPgVFSr017de2z6f/R19Sj+u/1699nN7DNG/xYWOWyrSSAQ9x58DwGj5TDU7/juPCHrJX6pe+3dbr76r/61ChT4z/Kqy30JlTDPpeQS1wh0CgDHzt1So0D/deXWfoH/icWncNv9MhQr9TX+X+CKSqrqx/onZiPzfbQSjBLMO7ikAQKycSZK+WOOdH1ffv73z+i9u/B48+ohn0vOgrjjmY2IAALrgl1WoeHbQyj6H/uPVa/9q571/stphDtEa+UNRaUBBN43uDADAkPhPKlTok0cF/V39YX2gj6vX/vLOez+lQoV+DdFinjYPVh85YycAMHr+pwoVz54jPxwF/9Gz31DOrf/mWCosQ9JbpjsZ9wQAwAPlgakvagr639nzG16qUPFsZn2wmEZucCyztVkAKW0yasJwOwAMj99UoWLnobXDgv41/fEDDv0b46myJgIyFkk3nQs6dwMAoOTXVKjQ760p6IX+m37Pzns/rUKF/uOYKi1rJCKGunEups3knOF2ABgiSxUqnvnu7UVxL/T9+hn9n727uUt/SoUKLcdVbTmS3tijpx1+FsPtADAefk6FCl0dFfSSv1e99q933lue1Tb3d4kvIqy280Y/9WYEkr7aOZLPZ+pw3+G9AwCInV+RJP2JGu/8J9X373/m0J9+z4hIG7rD4Uv6qWWDqaNPKZg9BwDYoJwB/0i/66RDf6d67eOtV9+rhuI/Nb6qy5D0RsmOC0k1DSc9mD0HgCHzZRUq9DdOCvr+V39ChQp9aYwV11RUxiDpmVdBb17zAABD5lKFCv17/bbagv70zpf6VRUqOps2jU7SCyTdumZMoFpnbzgAGDq/Q19ToULXtQX9ux9f+RkVKvRf9NvHWnkp4mLt0U2gGmf2HACGz09U8+iTE4L+jerVafXvP6CPVKjQ58dceRkCc4Dcg6A3l3NmzwFgDLzQv6lGgh+89z+u/mzzt6tXf0iS9IkqYi+jfK4sAuEau6Qb59MNyDkAwCl+QN9UoUK/pPdq/sR7+pcqVOib+oGxV55pIenDFprMqaA3HwthMRwAjIkf1Xeq9eqfrPHuT1Zr47+jv0DVtVmmNXRJz52Jaxs5ZzEcAIyLz1eS/l/150+883P6eiXnn6fa2kv6kAXHOBH0NmMgLIYDgDEy08dVDPx5/dED7/nhaqi90Mf6K1TZE2krSR+u6GStRyRS5BwAwJo/pg8fI+FX9Pf1Z/QZvau39d36ffpRfUFfffy/Xz0o+Ug6wrNF3krQqVUAgGa8rw/0rRNR8lv6QO9TVafdqO1s+jCH3rcHzFOrn8yQcwCAFnyfXus3DsTI39BrfR9V5EfShzr0bho9hd5uqJ1H1QAASt7Rn9MX9Av6UN/Qt/UN/ap+QV/Qj+gdqsanpA9VhlLrBYDUIwAA9FzSh7nqPbWQWdPSmyPnAAAQhaQPU5BMzVUC1B4AAAxI0se5HUra2psj5wAAEJmkD3fd+2EHXyDnAAAwREnPR/PoVeqgtpBzAACIWKSGL+ouBtp57hwAAKKX9CHPqBtHYo6cAwBALyR9iDPqbmbNkXMAAOiZBx2SqLsUcw5IBQCA3kn6EEQ9dSjmyDkAAHSKSwnr80K51Glyw7p2AADouaSXot4nb2qcizkz5wAAMAh3WjrUtBclz5yXvGCoHQAAwrnU3IOw5RHPqxtlXsqcIecAABAWH141Rln3JeXMnAMAQCSk3oSulPWwc+tGqUcpH9N2uAAAED3Gm0/fnFs3nQq7qaTcd7kYagcA6ClvDdanv/b+GWtJt5KWWnkU8kTSlaSJ9/Jcak6HAABA0OPz6deadfRZa91JWmopORB3IylRImnagYyXLHTjMS0BAAAEPXqf/ty1q5L38u9xiX8Y4k6qv1OpEze+fc23eHMAAAQdn15P5Euhnz7+fWAS+Orw5gAA0BufnnteTNbXP6xpBwCA3ok68s3WrgAAMAD8P8zWpz88oAYAAL0WdQbfEXMAABgE455R53xzAABA1FkCBwAAgKgj5gAA4I23Rl36VEnwp9T9s9CSjWMAAGDoDHv1OwvgAABgZKKeD26QHTEHAIBRivpwZtUzZswBAABZz3u++A1fDgAwQt6iCvaQKunw6FI3rHXH4jcAAAQd+ivrSDkAAEANWY93wRwL3wAAAIduhVESkV8vPfmSc8wBAABBbybrCirsCDkAACDozh27OpL2UsaFkAMAAILuX9rlUNzXku4kZBwAABD0MOJeSvvD12n1+uSodKuS71LAy6+IOAAAIOgRyvxhkG4AAAAAAAAAAAAAAAAAAAAAAAAAAAAAAAAAAAAAAAAAAAAAAAAAAAAAAAAAAAAAAAAAAAAAAAAAAAAAAAAAAAAAAAAAAAAAAAAAAAAAAAAAAAAAAAAAAAAAAAAAAAAAAAAAAAAAAAAAAAAAAAAAAAAAAAAAAAAAAAAAAAAAAAAAAAAAAAAAAAAAAAAAAAAAAAAAgOb8f4giO1dFBUJEAAAAAElFTkSuQmCC;" vertex="1" parent="1">
          <mxGeometry x="580" y="279.5" width="150" height="55" as="geometry" />
        </mxCell>
        <mxCell id="Sqp5UnDWA9D7-Q17COsX-15" value="Scan Vulnerabilite" style="text;html=1;align=center;verticalAlign=middle;resizable=0;points=[];autosize=1;strokeColor=none;fillColor=none;" vertex="1" parent="1">
          <mxGeometry x="585" y="232" width="120" height="30" as="geometry" />
        </mxCell>
      </root>
    </mxGraphModel>
  </diagram>
</mxfile>
